<svg xmlns="http://www.w3.org/2000/svg" xmlns:xlink="http://www.w3.org/1999/xlink" width="500" zoomAndPan="magnify" viewBox="0 0 375 112.499997" height="150" preserveAspectRatio="xMidYMid meet" version="1.0"><defs><g/><clipPath id="ea1307782b"><path d="M 0.828125 0 L 374.167969 0 L 374.167969 112.003906 L 0.828125 112.003906 Z M 0.828125 0 " clip-rule="nonzero"/></clipPath><clipPath id="5688de0b60"><path d="M 169 56 L 325 56 L 325 85 L 169 85 Z M 169 56 " clip-rule="nonzero"/></clipPath><clipPath id="3c7e24ef85"><path d="M 167.929688 64.007812 L 325.28125 56.101562 L 326.929688 88.914062 L 169.578125 96.820312 Z M 167.929688 64.007812 " clip-rule="nonzero"/></clipPath><clipPath id="d07e7458a7"><path d="M 167.929688 64.007812 L 325.28125 56.101562 L 326.929688 88.914062 L 169.578125 96.820312 Z M 167.929688 64.007812 " clip-rule="nonzero"/></clipPath></defs><g clip-path="url(#ea1307782b)"><path fill="#ffffff" d="M 0.828125 0 L 374.171875 0 L 374.171875 112.003906 L 0.828125 112.003906 Z M 0.828125 0 " fill-opacity="1" fill-rule="nonzero"/><path fill="#ffffff" d="M 0.828125 0 L 374.171875 0 L 374.171875 112.003906 L 0.828125 112.003906 Z M 0.828125 0 " fill-opacity="1" fill-rule="nonzero"/></g><g clip-path="url(#5688de0b60)"><g clip-path="url(#3c7e24ef85)"><g clip-path="url(#d07e7458a7)"><path fill="#000000" d="M 171.246094 83.722656 C 170.917969 84.167969 170.289062 84.265625 169.84375 83.933594 C 169.394531 83.605469 169.300781 82.976562 169.628906 82.53125 C 171.683594 79.746094 173.53125 77.582031 175.554688 75.792969 L 175.613281 75.742188 C 177.632812 73.964844 179.816406 72.574219 182.527344 71.335938 C 199.902344 63.375 224.667969 68.414062 248.808594 73.328125 C 282.371094 80.160156 314.710938 86.738281 322.765625 57.050781 C 322.910156 56.519531 323.460938 56.199219 324 56.34375 C 324.535156 56.488281 324.851562 57.039062 324.707031 57.578125 C 316.15625 89.078125 282.914062 82.3125 248.414062 75.292969 C 224.582031 70.441406 200.140625 65.46875 183.351562 73.15625 C 180.828125 74.3125 178.800781 75.601562 176.933594 77.246094 L 176.882812 77.296875 C 174.988281 78.972656 173.226562 81.039062 171.25 83.71875 Z M 171.246094 83.722656 " fill-opacity="1" fill-rule="evenodd"/></g></g></g><g fill="#000000" fill-opacity="1"><g transform="translate(53.179321, 69.693185)"><g><path d="M 57.765625 -16.640625 C 57.972656 -16.367188 58.050781 -16.082031 58 -15.78125 C 57.957031 -15.476562 57.804688 -15.21875 57.546875 -15 C 51.578125 -10.269531 46.148438 -5.800781 41.265625 -1.59375 C 41.847656 0.0195312 41.992188 1.816406 41.703125 3.796875 C 41.234375 7.210938 40.242188 10.425781 38.734375 13.4375 C 37.222656 16.445312 35.421875 19.210938 33.328125 21.734375 C 31.242188 24.265625 29.035156 26.457031 26.703125 28.3125 C 24.378906 30.175781 22.144531 31.648438 20 32.734375 C 17.851562 33.828125 15.984375 34.46875 14.390625 34.65625 C 14.160156 34.71875 13.945312 34.753906 13.75 34.765625 C 12.507812 34.816406 11.613281 34.609375 11.0625 34.140625 C 10.519531 33.671875 10.160156 33.21875 9.984375 32.78125 C 8.941406 30.320312 10.875 26.078125 15.78125 20.046875 C 20.695312 14.023438 28.234375 6.625 38.390625 -2.15625 C 36.960938 -4.457031 34.210938 -6.503906 30.140625 -8.296875 C 26.078125 -10.085938 20.707031 -12.132812 14.03125 -14.4375 C 13.25 -14.726562 12.453125 -15.007812 11.640625 -15.28125 C 10.828125 -15.5625 9.992188 -15.863281 9.140625 -16.1875 C 6.210938 -17.238281 4.140625 -18.75 2.921875 -20.71875 C 1.703125 -22.695312 1.441406 -25.023438 2.140625 -27.703125 C 2.691406 -29.765625 3.707031 -31.894531 5.1875 -34.09375 C 6.664062 -36.289062 8.488281 -38.488281 10.65625 -40.6875 C 12.832031 -42.894531 15.207031 -45.015625 17.78125 -47.046875 C 20.363281 -49.078125 23.007812 -50.9375 25.71875 -52.625 C 28.4375 -54.320312 31.101562 -55.773438 33.71875 -56.984375 C 36.34375 -58.191406 38.769531 -59.070312 41 -59.625 C 43.226562 -60.1875 45.128906 -60.320312 46.703125 -60.03125 C 47.359375 -59.914062 48.082031 -59.65625 48.875 -59.25 C 49.675781 -58.851562 50.328125 -58.175781 50.828125 -57.21875 C 51.335938 -56.269531 51.539062 -54.929688 51.4375 -53.203125 C 51.375 -52.878906 51.226562 -52.625 51 -52.4375 C 50.769531 -52.25 50.492188 -52.164062 50.171875 -52.1875 C 49.847656 -52.207031 49.578125 -52.34375 49.359375 -52.59375 C 49.148438 -52.84375 49.054688 -53.128906 49.078125 -53.453125 C 49.234375 -55.140625 49 -56.242188 48.375 -56.765625 C 47.75 -57.296875 47.070312 -57.628906 46.34375 -57.765625 C 44.8125 -58.035156 42.8125 -57.8125 40.34375 -57.09375 C 37.882812 -56.375 35.15625 -55.226562 32.15625 -53.65625 C 29.15625 -52.082031 26.09375 -50.175781 22.96875 -47.9375 C 19.632812 -45.601562 16.660156 -43.203125 14.046875 -40.734375 C 11.441406 -38.265625 9.304688 -35.867188 7.640625 -33.546875 C 5.972656 -31.222656 4.894531 -29.085938 4.40625 -27.140625 C 3.289062 -22.972656 5.132812 -20.035156 9.9375 -18.328125 C 10.78125 -18.046875 11.597656 -17.765625 12.390625 -17.484375 C 13.191406 -17.203125 14.003906 -16.921875 14.828125 -16.640625 C 18.929688 -15.210938 22.664062 -13.847656 26.03125 -12.546875 C 29.394531 -11.253906 32.28125 -9.910156 34.6875 -8.515625 C 37.101562 -7.128906 38.9375 -5.519531 40.1875 -3.6875 C 45.007812 -7.851562 50.320312 -12.222656 56.125 -16.796875 C 56.394531 -17.003906 56.679688 -17.085938 56.984375 -17.046875 C 57.296875 -17.003906 57.554688 -16.867188 57.765625 -16.640625 Z M 39.453125 3.421875 C 39.640625 2.210938 39.609375 1.09375 39.359375 0.0625 C 31.191406 7.15625 24.738281 13.359375 20 18.671875 C 17.25 21.804688 15.148438 24.578125 13.703125 26.984375 C 12.265625 29.398438 11.726562 31.035156 12.09375 31.890625 C 12.226562 32.210938 12.515625 32.390625 12.953125 32.421875 C 13.398438 32.460938 13.78125 32.453125 14.09375 32.390625 C 15.414062 32.253906 17.046875 31.675781 18.984375 30.65625 C 20.929688 29.632812 22.984375 28.257812 25.140625 26.53125 C 27.296875 24.8125 29.375 22.773438 31.375 20.421875 C 33.375 18.078125 35.101562 15.472656 36.5625 12.609375 C 38.019531 9.742188 38.984375 6.679688 39.453125 3.421875 Z M 39.453125 3.421875 "/></g></g></g><g fill="#000000" fill-opacity="1"><g transform="translate(109.286029, 66.874016)"><g><path d="M 48.734375 -37.828125 C 48.941406 -37.597656 49.03125 -37.320312 49 -37 C 48.976562 -36.6875 48.835938 -36.425781 48.578125 -36.21875 C 48.109375 -35.863281 47.644531 -35.851562 47.1875 -36.1875 C 46.664062 -36.375 45.472656 -36.457031 43.609375 -36.4375 C 41.753906 -36.425781 39.425781 -36.359375 36.625 -36.234375 C 33.832031 -36.117188 30.757812 -35.957031 27.40625 -35.75 C 24.0625 -35.539062 20.625 -35.316406 17.09375 -35.078125 C 13.570312 -34.835938 10.15625 -34.59375 6.84375 -34.34375 C 5.863281 -29.101562 4.851562 -23.40625 3.8125 -17.25 C 2.769531 -11.09375 1.742188 -4.851562 0.734375 1.46875 C -0.578125 9.769531 -1.566406 16.578125 -2.234375 21.890625 C -2.910156 27.203125 -3.328125 31.039062 -3.484375 33.40625 C -3.398438 33.394531 -3.316406 33.410156 -3.234375 33.453125 C -2.921875 33.515625 -2.695312 33.691406 -2.5625 33.984375 C -2.425781 34.273438 -2.410156 34.566406 -2.515625 34.859375 C -2.710938 35.546875 -2.945312 36.1875 -3.21875 36.78125 C -3.5 37.375 -3.894531 37.679688 -4.40625 37.703125 C -4.519531 37.710938 -4.65625 37.703125 -4.8125 37.671875 C -5.382812 37.492188 -5.71875 37.078125 -5.8125 36.421875 C -5.90625 35.773438 -5.898438 34.867188 -5.796875 33.703125 C -5.722656 32.015625 -5.484375 29.585938 -5.078125 26.421875 C -4.753906 23.429688 -4.3125 19.941406 -3.75 15.953125 C -3.195312 11.972656 -2.539062 7.601562 -1.78125 2.84375 C -0.78125 -3.59375 0.253906 -10 1.328125 -16.375 C 2.410156 -22.757812 3.453125 -28.691406 4.453125 -34.171875 C 2.546875 -34.035156 0.738281 -33.90625 -0.96875 -33.78125 C -2.6875 -33.65625 -4.242188 -33.535156 -5.640625 -33.421875 C -8.304688 -33.203125 -10.632812 -33.019531 -12.625 -32.875 C -14.613281 -32.738281 -16.03125 -32.648438 -16.875 -32.609375 C -17.195312 -32.597656 -17.472656 -32.695312 -17.703125 -32.90625 C -17.929688 -33.113281 -18.054688 -33.375 -18.078125 -33.6875 C -18.097656 -34.007812 -18.003906 -34.285156 -17.796875 -34.515625 C -17.585938 -34.753906 -17.320312 -34.878906 -17 -34.890625 C -16.15625 -34.929688 -14.742188 -35.03125 -12.765625 -35.1875 C -10.796875 -35.351562 -8.484375 -35.539062 -5.828125 -35.75 C -3.910156 -35.882812 -2.050781 -36.019531 -0.25 -36.15625 C 1.539062 -36.289062 3.269531 -36.421875 4.9375 -36.546875 C 5.40625 -39.128906 5.875 -41.554688 6.34375 -43.828125 C 6.8125 -46.109375 7.257812 -48.203125 7.6875 -50.109375 C 7.738281 -50.429688 7.898438 -50.679688 8.171875 -50.859375 C 8.441406 -51.035156 8.722656 -51.085938 9.015625 -51.015625 C 9.335938 -50.953125 9.582031 -50.785156 9.75 -50.515625 C 9.925781 -50.242188 9.984375 -49.945312 9.921875 -49.625 C 9.148438 -46.019531 8.265625 -41.710938 7.265625 -36.703125 C 13.492188 -37.140625 18.816406 -37.5 23.234375 -37.78125 C 27.648438 -38.0625 31.351562 -38.273438 34.34375 -38.421875 C 37.34375 -38.578125 39.769531 -38.660156 41.625 -38.671875 C 43.488281 -38.691406 44.898438 -38.675781 45.859375 -38.625 C 46.828125 -38.570312 47.515625 -38.472656 47.921875 -38.328125 C 48.328125 -38.191406 48.597656 -38.023438 48.734375 -37.828125 Z M 48.734375 -37.828125 "/></g></g></g><g fill="#000000" fill-opacity="1"><g transform="translate(117.241454, 66.474284)"><g><path d="M 19.546875 -14.359375 C 19.835938 -14.210938 20.007812 -13.976562 20.0625 -13.65625 C 20.113281 -13.34375 20.066406 -13.0625 19.921875 -12.8125 C 17.742188 -9.425781 15.726562 -6.617188 13.875 -4.390625 C 12.019531 -2.160156 10.148438 -0.289062 8.265625 1.21875 C 6.847656 2.320312 5.421875 2.910156 3.984375 2.984375 C 2.867188 3.035156 1.878906 2.785156 1.015625 2.234375 C 0.429688 1.859375 -0.148438 1.175781 -0.734375 0.1875 C -1.328125 -0.800781 -1.691406 -2.257812 -1.828125 -4.1875 C -1.960938 -6.125 -1.613281 -8.691406 -0.78125 -11.890625 C -0.78125 -11.890625 -0.78125 -11.910156 -0.78125 -11.953125 C 0.226562 -15.847656 1.488281 -18.84375 3 -20.9375 C 4.507812 -23.03125 5.835938 -24.125 6.984375 -24.21875 C 7.898438 -24.3125 8.519531 -23.941406 8.84375 -23.109375 C 9.34375 -21.972656 8.90625 -20.300781 7.53125 -18.09375 C 6.164062 -15.894531 4.113281 -13.523438 1.375 -10.984375 C 0.625 -8.140625 0.3125 -5.929688 0.4375 -4.359375 C 0.5625 -2.796875 0.835938 -1.671875 1.265625 -0.984375 C 1.703125 -0.304688 2.046875 0.125 2.296875 0.3125 C 3.546875 1.125 5.066406 0.804688 6.859375 -0.640625 C 8.628906 -2.015625 10.398438 -3.773438 12.171875 -5.921875 C 13.953125 -8.066406 15.875 -10.773438 17.9375 -14.046875 C 18.132812 -14.296875 18.390625 -14.457031 18.703125 -14.53125 C 19.015625 -14.601562 19.296875 -14.546875 19.546875 -14.359375 Z M 6.703125 -21.6875 C 6.273438 -21.382812 5.707031 -20.769531 5 -19.84375 C 4.300781 -18.914062 3.59375 -17.570312 2.875 -15.8125 C 4.238281 -17.28125 5.191406 -18.515625 5.734375 -19.515625 C 6.285156 -20.515625 6.609375 -21.238281 6.703125 -21.6875 Z M 6.703125 -21.6875 "/></g></g></g><g fill="#000000" fill-opacity="1"><g transform="translate(134.647694, 65.59968)"><g><path d="M 11.34375 -16.46875 C 11.664062 -16.53125 11.960938 -16.46875 12.234375 -16.28125 C 12.503906 -16.09375 12.664062 -15.835938 12.71875 -15.515625 C 12.769531 -15.191406 12.703125 -14.90625 12.515625 -14.65625 C 12.328125 -14.414062 12.070312 -14.265625 11.75 -14.203125 C 10.289062 -13.929688 8.925781 -13.691406 7.65625 -13.484375 C 6.382812 -13.285156 5.054688 -13.070312 3.671875 -12.84375 C 2.722656 -7.84375 1.816406 -2.8125 0.953125 2.25 C 0.0859375 7.320312 -0.695312 12.132812 -1.40625 16.6875 C -2.125 21.238281 -2.722656 25.285156 -3.203125 28.828125 C -3.679688 32.367188 -4.007812 35.144531 -4.1875 37.15625 C -4.144531 37.15625 -4.085938 37.15625 -4.015625 37.15625 C -3.734375 37.257812 -3.515625 37.457031 -3.359375 37.75 C -3.203125 38.039062 -3.179688 38.332031 -3.296875 38.625 C -3.492188 39.382812 -3.734375 40.082031 -4.015625 40.71875 C -4.296875 41.351562 -4.695312 41.679688 -5.21875 41.703125 C -5.332031 41.710938 -5.453125 41.703125 -5.578125 41.671875 C -5.984375 41.578125 -6.265625 41.34375 -6.421875 40.96875 C -6.585938 40.59375 -6.644531 39.832031 -6.59375 38.6875 C -6.550781 37.550781 -6.390625 35.789062 -6.109375 33.40625 C -5.609375 29.070312 -4.800781 23.394531 -3.6875 16.375 C -2.96875 11.625 -2.179688 6.765625 -1.328125 1.796875 C -0.472656 -3.160156 0.398438 -7.9375 1.296875 -12.53125 C -0.0546875 -12.351562 -1.648438 -12.140625 -3.484375 -11.890625 C -3.523438 -11.890625 -3.566406 -11.882812 -3.609375 -11.875 C -4.285156 -11.84375 -4.679688 -12.1875 -4.796875 -12.90625 C -4.816406 -13.21875 -4.726562 -13.5 -4.53125 -13.75 C -4.34375 -14 -4.09375 -14.148438 -3.78125 -14.203125 C -2.707031 -14.335938 -1.71875 -14.457031 -0.8125 -14.5625 C 0.0820312 -14.664062 0.921875 -14.78125 1.703125 -14.90625 C 2.535156 -19.101562 3.304688 -22.921875 4.015625 -26.359375 C 4.179688 -27.117188 4.425781 -28.1875 4.75 -29.5625 C 5.070312 -30.9375 5.460938 -32.414062 5.921875 -34 C 6.390625 -35.582031 6.894531 -37.097656 7.4375 -38.546875 C 7.988281 -39.992188 8.582031 -41.210938 9.21875 -42.203125 C 9.851562 -43.203125 10.503906 -43.773438 11.171875 -43.921875 C 11.835938 -44.066406 12.382812 -43.859375 12.8125 -43.296875 C 13.375 -42.566406 13.535156 -41.332031 13.296875 -39.59375 C 13.066406 -37.863281 12.539062 -35.816406 11.71875 -33.453125 C 10.90625 -31.097656 9.898438 -28.609375 8.703125 -25.984375 C 7.515625 -23.367188 6.207031 -20.804688 4.78125 -18.296875 C 4.738281 -18.253906 4.722656 -18.210938 4.734375 -18.171875 C 4.640625 -17.691406 4.539062 -17.207031 4.4375 -16.71875 C 4.34375 -16.226562 4.25 -15.742188 4.15625 -15.265625 C 5.332031 -15.453125 6.5 -15.632812 7.65625 -15.8125 C 8.8125 -15.988281 10.039062 -16.207031 11.34375 -16.46875 Z M 11.03125 -40.75 C 10.507812 -39.875 9.832031 -38.320312 9 -36.09375 C 8.175781 -33.875 7.296875 -30.628906 6.359375 -26.359375 C 8.085938 -30.035156 9.28125 -33.078125 9.9375 -35.484375 C 10.59375 -37.898438 10.957031 -39.65625 11.03125 -40.75 Z M 11.03125 -40.75 "/></g></g></g><g fill="#000000" fill-opacity="1"><g transform="translate(148.225758, 64.917429)"><g><path d="M 24.390625 -14.546875 C 24.679688 -14.441406 24.882812 -14.238281 25 -13.9375 C 25.113281 -13.644531 25.117188 -13.351562 25.015625 -13.0625 C 24.335938 -11.476562 23.585938 -9.882812 22.765625 -8.28125 C 21.953125 -6.6875 21.085938 -5.21875 20.171875 -3.875 C 19.253906 -2.53125 18.296875 -1.441406 17.296875 -0.609375 C 16.304688 0.222656 15.296875 0.664062 14.265625 0.71875 C 14.054688 0.726562 13.828125 0.722656 13.578125 0.703125 C 10.890625 0.304688 9.054688 -3.195312 8.078125 -9.8125 C 7.441406 -8.863281 6.707031 -7.800781 5.875 -6.625 C 5.039062 -5.445312 4.15625 -4.273438 3.21875 -3.109375 C 3.050781 -2.941406 2.796875 -2.675781 2.453125 -2.3125 C 2.117188 -1.957031 1.71875 -1.664062 1.25 -1.4375 C 0.78125 -1.21875 0.296875 -1.21875 -0.203125 -1.4375 C -1.171875 -1.75 -1.679688 -2.757812 -1.734375 -4.46875 C -1.773438 -5.46875 -1.644531 -6.710938 -1.34375 -8.203125 C -1.039062 -9.703125 -0.578125 -11.21875 0.046875 -12.75 C 0.671875 -14.28125 1.421875 -15.648438 2.296875 -16.859375 C 3.179688 -18.066406 4.191406 -18.890625 5.328125 -19.328125 C 6.023438 -19.648438 6.894531 -19.75 7.9375 -19.625 C 8.988281 -19.5 10.109375 -18.804688 11.296875 -17.546875 C 11.503906 -17.316406 11.609375 -17.039062 11.609375 -16.71875 C 11.609375 -16.40625 11.492188 -16.144531 11.265625 -15.9375 C 11.035156 -15.71875 10.757812 -15.609375 10.4375 -15.609375 C 10.113281 -15.609375 9.84375 -15.722656 9.625 -15.953125 C 8.613281 -17.035156 7.757812 -17.523438 7.0625 -17.421875 C 6.375 -17.328125 5.796875 -17.09375 5.328125 -16.71875 C 4.492188 -16.03125 3.75 -15.066406 3.09375 -13.828125 C 2.4375 -12.597656 1.898438 -11.3125 1.484375 -9.96875 C 1.078125 -8.625 0.800781 -7.378906 0.65625 -6.234375 C 0.507812 -5.097656 0.488281 -4.273438 0.59375 -3.765625 C 0.707031 -3.835938 0.832031 -3.9375 0.96875 -4.0625 C 1.101562 -4.1875 1.25 -4.359375 1.40625 -4.578125 C 2.53125 -5.941406 3.554688 -7.296875 4.484375 -8.640625 C 5.410156 -9.992188 6.207031 -11.1875 6.875 -12.21875 C 7.0625 -12.507812 7.238281 -12.789062 7.40625 -13.0625 C 7.570312 -13.332031 7.726562 -13.566406 7.875 -13.765625 C 8.175781 -14.179688 8.59375 -14.328125 9.125 -14.203125 C 9.65625 -14.097656 9.945312 -13.769531 10 -13.21875 C 10.257812 -10.632812 10.578125 -8.5625 10.953125 -7 C 11.328125 -5.445312 11.710938 -4.285156 12.109375 -3.515625 C 12.503906 -2.753906 12.867188 -2.242188 13.203125 -1.984375 C 13.546875 -1.722656 13.796875 -1.597656 13.953125 -1.609375 C 14.722656 -1.484375 15.898438 -2.320312 17.484375 -4.125 C 19.066406 -5.925781 20.863281 -9.195312 22.875 -13.9375 C 23.019531 -14.25 23.238281 -14.460938 23.53125 -14.578125 C 23.832031 -14.691406 24.117188 -14.679688 24.390625 -14.546875 Z M 24.390625 -14.546875 "/></g></g></g><g fill="#000000" fill-opacity="1"><g transform="translate(170.477036, 63.79938)"><g><path d="M 23.4375 -14.5625 C 23.726562 -14.414062 23.921875 -14.191406 24.015625 -13.890625 C 24.109375 -13.597656 24.082031 -13.304688 23.9375 -13.015625 C 22.226562 -9.609375 20.671875 -6.976562 19.265625 -5.125 C 17.859375 -3.28125 16.375 -2.421875 14.8125 -2.546875 C 12.800781 -2.679688 11.113281 -4.753906 9.75 -8.765625 C 9.28125 -10.066406 8.882812 -11 8.5625 -11.5625 C 8.238281 -12.125 7.976562 -12.46875 7.78125 -12.59375 C 7.59375 -12.726562 7.460938 -12.796875 7.390625 -12.796875 C 7.265625 -12.816406 7.03125 -12.679688 6.6875 -12.390625 C 6.34375 -12.097656 5.859375 -11.453125 5.234375 -10.453125 C 4.609375 -9.460938 3.84375 -7.9375 2.9375 -5.875 C 2.039062 -3.820312 0.960938 -1 -0.296875 2.59375 C -0.460938 3.082031 -0.785156 3.34375 -1.265625 3.375 C -1.390625 3.375 -1.492188 3.359375 -1.578125 3.328125 C -2.253906 3.203125 -2.578125 2.796875 -2.546875 2.109375 C -2.429688 0.460938 -2.164062 -1.445312 -1.75 -3.625 C -1.332031 -5.800781 -0.867188 -8.019531 -0.359375 -10.28125 C 0.140625 -12.550781 0.609375 -14.582031 1.046875 -16.375 C 1.140625 -16.78125 1.226562 -17.15625 1.3125 -17.5 C 1.40625 -17.84375 1.476562 -18.175781 1.53125 -18.5 C 1.632812 -18.8125 1.820312 -19.046875 2.09375 -19.203125 C 2.363281 -19.359375 2.640625 -19.398438 2.921875 -19.328125 C 3.253906 -19.265625 3.507812 -19.101562 3.6875 -18.84375 C 3.863281 -18.582031 3.894531 -18.285156 3.78125 -17.953125 C 3.71875 -17.628906 3.644531 -17.296875 3.5625 -16.953125 C 3.476562 -16.609375 3.390625 -16.234375 3.296875 -15.828125 C 3.066406 -14.773438 2.800781 -13.617188 2.5 -12.359375 C 2.207031 -11.097656 1.910156 -9.828125 1.609375 -8.546875 C 2.847656 -11.160156 3.921875 -12.910156 4.828125 -13.796875 C 5.734375 -14.679688 6.585938 -15.125 7.390625 -15.125 C 8.515625 -15.101562 9.421875 -14.53125 10.109375 -13.40625 C 10.804688 -12.28125 11.421875 -10.96875 11.953125 -9.46875 C 12.648438 -7.4375 13.269531 -6.15625 13.8125 -5.625 C 14.363281 -5.09375 14.757812 -4.832031 15 -4.84375 C 15.519531 -4.78125 16.113281 -5.097656 16.78125 -5.796875 C 17.445312 -6.492188 18.097656 -7.363281 18.734375 -8.40625 C 19.378906 -9.457031 19.988281 -10.5 20.5625 -11.53125 C 21.132812 -12.5625 21.5625 -13.398438 21.84375 -14.046875 C 21.988281 -14.335938 22.21875 -14.53125 22.53125 -14.625 C 22.84375 -14.71875 23.144531 -14.695312 23.4375 -14.5625 Z M 23.4375 -14.5625 "/></g></g></g><g fill="#000000" fill-opacity="1"><g transform="translate(191.831077, 62.726413)"><g><path d="M 16.84375 -14.515625 C 17.132812 -14.378906 17.316406 -14.148438 17.390625 -13.828125 C 17.472656 -13.503906 17.4375 -13.203125 17.28125 -12.921875 C 16.59375 -11.691406 15.703125 -10.3125 14.609375 -8.78125 C 13.523438 -7.25 12.335938 -5.78125 11.046875 -4.375 C 9.753906 -2.96875 8.46875 -1.789062 7.1875 -0.84375 C 5.90625 0.101562 4.703125 0.609375 3.578125 0.671875 C 3.097656 0.691406 2.675781 0.628906 2.3125 0.484375 C 0.914062 -0.046875 0.09375 -1.453125 -0.15625 -3.734375 C -0.414062 -6.015625 -0.109375 -9.285156 0.765625 -13.546875 C 0.828125 -13.859375 0.992188 -14.101562 1.265625 -14.28125 C 1.535156 -14.457031 1.8125 -14.507812 2.09375 -14.4375 C 2.414062 -14.382812 2.664062 -14.21875 2.84375 -13.9375 C 3.019531 -13.664062 3.070312 -13.390625 3 -13.109375 C 2.5 -10.523438 2.203125 -8.476562 2.109375 -6.96875 C 2.023438 -5.46875 2.050781 -4.34375 2.1875 -3.59375 C 2.320312 -2.84375 2.492188 -2.34375 2.703125 -2.09375 C 2.921875 -1.84375 3.050781 -1.71875 3.09375 -1.71875 C 3.625 -1.507812 4.375 -1.71875 5.34375 -2.34375 C 6.3125 -2.96875 7.382812 -3.875 8.5625 -5.0625 C 9.738281 -6.257812 10.914062 -7.640625 12.09375 -9.203125 C 13.28125 -10.765625 14.332031 -12.390625 15.25 -14.078125 C 15.4375 -14.367188 15.675781 -14.550781 15.96875 -14.625 C 16.269531 -14.695312 16.5625 -14.660156 16.84375 -14.515625 Z M 2.5 -18.609375 C 1.695312 -18.597656 1.273438 -18.800781 1.234375 -19.21875 C 1.191406 -19.632812 1.347656 -20.070312 1.703125 -20.53125 C 2.054688 -21 2.429688 -21.316406 2.828125 -21.484375 C 3.460938 -21.722656 3.929688 -21.707031 4.234375 -21.4375 C 4.546875 -21.164062 4.703125 -20.8125 4.703125 -20.375 C 4.703125 -19.9375 4.519531 -19.53125 4.15625 -19.15625 C 3.800781 -18.789062 3.25 -18.609375 2.5 -18.609375 Z M 2.5 -18.609375 "/></g></g></g><g fill="#000000" fill-opacity="1"><g transform="translate(206.964343, 61.966018)"><g><path d="M 19.546875 -14.359375 C 19.835938 -14.210938 20.007812 -13.976562 20.0625 -13.65625 C 20.113281 -13.34375 20.066406 -13.0625 19.921875 -12.8125 C 17.742188 -9.425781 15.726562 -6.617188 13.875 -4.390625 C 12.019531 -2.160156 10.148438 -0.289062 8.265625 1.21875 C 6.847656 2.320312 5.421875 2.910156 3.984375 2.984375 C 2.867188 3.035156 1.878906 2.785156 1.015625 2.234375 C 0.429688 1.859375 -0.148438 1.175781 -0.734375 0.1875 C -1.328125 -0.800781 -1.691406 -2.257812 -1.828125 -4.1875 C -1.960938 -6.125 -1.613281 -8.691406 -0.78125 -11.890625 C -0.78125 -11.890625 -0.78125 -11.910156 -0.78125 -11.953125 C 0.226562 -15.847656 1.488281 -18.84375 3 -20.9375 C 4.507812 -23.03125 5.835938 -24.125 6.984375 -24.21875 C 7.898438 -24.3125 8.519531 -23.941406 8.84375 -23.109375 C 9.34375 -21.972656 8.90625 -20.300781 7.53125 -18.09375 C 6.164062 -15.894531 4.113281 -13.523438 1.375 -10.984375 C 0.625 -8.140625 0.3125 -5.929688 0.4375 -4.359375 C 0.5625 -2.796875 0.835938 -1.671875 1.265625 -0.984375 C 1.703125 -0.304688 2.046875 0.125 2.296875 0.3125 C 3.546875 1.125 5.066406 0.804688 6.859375 -0.640625 C 8.628906 -2.015625 10.398438 -3.773438 12.171875 -5.921875 C 13.953125 -8.066406 15.875 -10.773438 17.9375 -14.046875 C 18.132812 -14.296875 18.390625 -14.457031 18.703125 -14.53125 C 19.015625 -14.601562 19.296875 -14.546875 19.546875 -14.359375 Z M 6.703125 -21.6875 C 6.273438 -21.382812 5.707031 -20.769531 5 -19.84375 C 4.300781 -18.914062 3.59375 -17.570312 2.875 -15.8125 C 4.238281 -17.28125 5.191406 -18.515625 5.734375 -19.515625 C 6.285156 -20.515625 6.609375 -21.238281 6.703125 -21.6875 Z M 6.703125 -21.6875 "/></g></g></g><g fill="#000000" fill-opacity="1"><g transform="translate(188.059463, 90.683713)"><g><path d="M 4.8125 -9.234375 C 4.96875 -9.117188 5.054688 -8.914062 5.078125 -8.625 C 5.097656 -8.332031 5.046875 -7.9375 4.921875 -7.4375 C 4.859375 -7.164062 4.773438 -6.804688 4.671875 -6.359375 C 4.566406 -5.921875 4.445312 -5.414062 4.3125 -4.84375 C 4.1875 -4.28125 4.050781 -3.679688 3.90625 -3.046875 C 3.769531 -2.410156 3.628906 -1.765625 3.484375 -1.109375 C 3.335938 -0.453125 3.191406 0.1875 3.046875 0.8125 C 2.910156 1.445312 2.785156 2.039062 2.671875 2.59375 C 2.554688 3.15625 2.457031 3.648438 2.375 4.078125 C 2.289062 4.515625 2.226562 4.859375 2.1875 5.109375 C 2.238281 5.117188 2.269531 5.144531 2.28125 5.1875 C 2.300781 5.238281 2.304688 5.289062 2.296875 5.34375 C 2.253906 5.445312 2.210938 5.539062 2.171875 5.625 C 2.128906 5.707031 2.070312 5.75 2 5.75 C 1.96875 5.75 1.941406 5.75 1.921875 5.75 C 1.828125 5.71875 1.78125 5.644531 1.78125 5.53125 C 1.78125 5.425781 1.796875 5.257812 1.828125 5.03125 C 1.878906 4.726562 1.960938 4.285156 2.078125 3.703125 C 2.273438 2.703125 2.566406 1.335938 2.953125 -0.390625 C 3.078125 -0.992188 3.207031 -1.597656 3.34375 -2.203125 C 3.488281 -2.816406 3.625 -3.40625 3.75 -3.96875 C 3.882812 -4.53125 4.003906 -5.046875 4.109375 -5.515625 C 4.222656 -5.992188 4.316406 -6.40625 4.390625 -6.75 C 4.472656 -7.09375 4.535156 -7.351562 4.578125 -7.53125 C 4.671875 -7.914062 4.71875 -8.207031 4.71875 -8.40625 C 4.726562 -8.601562 4.710938 -8.734375 4.671875 -8.796875 C 4.640625 -8.867188 4.617188 -8.914062 4.609375 -8.9375 C 4.566406 -8.957031 4.492188 -8.945312 4.390625 -8.90625 C 4.285156 -8.875 4.144531 -8.789062 3.96875 -8.65625 C 3.738281 -8.488281 3.492188 -8.253906 3.234375 -7.953125 C 2.972656 -7.648438 2.710938 -7.3125 2.453125 -6.9375 C 2.191406 -6.5625 1.945312 -6.164062 1.71875 -5.75 C 1.5 -5.34375 1.3125 -4.929688 1.15625 -4.515625 C 1 -4.109375 0.894531 -3.722656 0.84375 -3.359375 C 0.789062 -3.003906 0.8125 -2.6875 0.90625 -2.40625 C 1.082031 -1.875 1.5625 -1.597656 2.34375 -1.578125 C 2.394531 -1.578125 2.4375 -1.5625 2.46875 -1.53125 C 2.507812 -1.5 2.53125 -1.457031 2.53125 -1.40625 C 2.53125 -1.351562 2.507812 -1.3125 2.46875 -1.28125 C 2.4375 -1.25 2.394531 -1.234375 2.34375 -1.234375 C 2.125 -1.234375 1.894531 -1.257812 1.65625 -1.3125 C 1.414062 -1.375 1.195312 -1.476562 1 -1.625 C 0.8125 -1.78125 0.664062 -2.003906 0.5625 -2.296875 C 0.46875 -2.566406 0.4375 -2.863281 0.46875 -3.1875 C 0.5 -3.519531 0.5625 -3.851562 0.65625 -4.1875 C 0.757812 -4.519531 0.875 -4.832031 1 -5.125 C 1.132812 -5.425781 1.265625 -5.6875 1.390625 -5.90625 C 1.609375 -6.3125 1.851562 -6.710938 2.125 -7.109375 C 2.394531 -7.503906 2.671875 -7.859375 2.953125 -8.171875 C 3.234375 -8.492188 3.5 -8.753906 3.75 -8.953125 C 4.195312 -9.296875 4.550781 -9.390625 4.8125 -9.234375 Z M 4.8125 -9.234375 "/></g></g></g><g fill="#000000" fill-opacity="1"><g transform="translate(200.292525, 90.683713)"><g><path d="M 9.21875 2.25 C 9.257812 2.257812 9.285156 2.285156 9.296875 2.328125 C 9.316406 2.378906 9.316406 2.429688 9.296875 2.484375 C 9.203125 2.679688 9.113281 2.828125 9.03125 2.921875 C 8.945312 3.023438 8.851562 3.054688 8.75 3.015625 C 8.664062 2.992188 8.609375 2.9375 8.578125 2.84375 C 8.546875 2.75 8.535156 2.578125 8.546875 2.328125 C 8.554688 2.085938 8.585938 1.738281 8.640625 1.28125 C 8.703125 0.820312 8.789062 0.222656 8.90625 -0.515625 C 8.988281 -1.097656 9.070312 -1.6875 9.15625 -2.28125 C 9.238281 -2.882812 9.304688 -3.453125 9.359375 -3.984375 C 9.410156 -4.515625 9.429688 -4.96875 9.421875 -5.34375 C 9.421875 -5.488281 9.40625 -5.648438 9.375 -5.828125 C 9.351562 -6.003906 9.304688 -6.160156 9.234375 -6.296875 C 9.171875 -6.429688 9.070312 -6.503906 8.9375 -6.515625 C 8.789062 -6.535156 8.585938 -6.457031 8.328125 -6.28125 C 8.078125 -6.113281 7.773438 -5.816406 7.421875 -5.390625 C 7.078125 -4.972656 6.691406 -4.394531 6.265625 -3.65625 C 5.960938 -3.125 5.613281 -2.445312 5.21875 -1.625 C 4.832031 -0.8125 4.425781 0.164062 4 1.3125 C 3.570312 2.46875 3.144531 3.804688 2.71875 5.328125 C 2.707031 5.328125 2.703125 5.332031 2.703125 5.34375 C 2.671875 5.445312 2.632812 5.539062 2.59375 5.625 C 2.550781 5.707031 2.488281 5.75 2.40625 5.75 C 2.382812 5.75 2.363281 5.742188 2.34375 5.734375 C 2.25 5.710938 2.203125 5.644531 2.203125 5.53125 C 2.203125 5.414062 2.21875 5.25 2.25 5.03125 C 2.289062 4.71875 2.367188 4.269531 2.484375 3.6875 C 2.679688 2.675781 2.96875 1.304688 3.34375 -0.421875 C 3.46875 -1.023438 3.597656 -1.628906 3.734375 -2.234375 C 3.867188 -2.835938 4 -3.421875 4.125 -3.984375 C 4.257812 -4.546875 4.378906 -5.066406 4.484375 -5.546875 C 4.585938 -6.023438 4.679688 -6.441406 4.765625 -6.796875 C 4.847656 -7.160156 4.914062 -7.4375 4.96875 -7.625 C 5.050781 -7.976562 5.09375 -8.25 5.09375 -8.4375 C 5.09375 -8.625 5.070312 -8.753906 5.03125 -8.828125 C 5 -8.898438 4.976562 -8.945312 4.96875 -8.96875 C 4.90625 -9.007812 4.796875 -9.003906 4.640625 -8.953125 C 4.492188 -8.898438 4.289062 -8.773438 4.03125 -8.578125 C 3.738281 -8.347656 3.429688 -8.0625 3.109375 -7.71875 C 2.796875 -7.382812 2.488281 -7.007812 2.1875 -6.59375 C 1.882812 -6.1875 1.609375 -5.765625 1.359375 -5.328125 C 1.109375 -4.890625 0.894531 -4.460938 0.71875 -4.046875 C 0.539062 -3.628906 0.421875 -3.238281 0.359375 -2.875 C 0.296875 -2.507812 0.304688 -2.195312 0.390625 -1.9375 C 0.554688 -1.457031 1 -1.210938 1.71875 -1.203125 C 1.757812 -1.203125 1.796875 -1.179688 1.828125 -1.140625 C 1.867188 -1.109375 1.890625 -1.066406 1.890625 -1.015625 C 1.890625 -0.960938 1.867188 -0.921875 1.828125 -0.890625 C 1.796875 -0.859375 1.757812 -0.84375 1.71875 -0.84375 C 1.507812 -0.84375 1.289062 -0.867188 1.0625 -0.921875 C 0.84375 -0.972656 0.640625 -1.066406 0.453125 -1.203125 C 0.265625 -1.347656 0.128906 -1.554688 0.046875 -1.828125 C -0.046875 -2.097656 -0.0703125 -2.398438 -0.03125 -2.734375 C 0.0078125 -3.066406 0.09375 -3.40625 0.21875 -3.75 C 0.34375 -4.101562 0.476562 -4.429688 0.625 -4.734375 C 0.78125 -5.046875 0.929688 -5.316406 1.078125 -5.546875 C 1.335938 -5.992188 1.625 -6.425781 1.9375 -6.84375 C 2.25 -7.257812 2.566406 -7.640625 2.890625 -7.984375 C 3.210938 -8.335938 3.519531 -8.628906 3.8125 -8.859375 C 4.40625 -9.316406 4.851562 -9.453125 5.15625 -9.265625 C 5.476562 -9.054688 5.53125 -8.476562 5.3125 -7.53125 C 5.238281 -7.226562 5.144531 -6.820312 5.03125 -6.3125 C 4.914062 -5.8125 4.785156 -5.238281 4.640625 -4.59375 C 4.492188 -3.945312 4.335938 -3.265625 4.171875 -2.546875 C 4.015625 -1.828125 3.859375 -1.101562 3.703125 -0.375 C 3.546875 0.34375 3.394531 1.03125 3.25 1.6875 C 3.113281 2.351562 2.992188 2.953125 2.890625 3.484375 C 3.410156 1.828125 3.953125 0.347656 4.515625 -0.953125 C 5.085938 -2.265625 5.648438 -3.363281 6.203125 -4.25 C 6.753906 -5.144531 7.269531 -5.816406 7.75 -6.265625 C 8.226562 -6.722656 8.640625 -6.925781 8.984375 -6.875 C 9.097656 -6.863281 9.210938 -6.8125 9.328125 -6.71875 C 9.453125 -6.632812 9.554688 -6.484375 9.640625 -6.265625 C 9.722656 -6.054688 9.769531 -5.753906 9.78125 -5.359375 C 9.78125 -4.972656 9.753906 -4.507812 9.703125 -3.96875 C 9.648438 -3.425781 9.582031 -2.851562 9.5 -2.25 C 9.425781 -1.644531 9.34375 -1.050781 9.25 -0.46875 C 9.195312 -0.101562 9.144531 0.265625 9.09375 0.640625 C 9.039062 1.023438 8.992188 1.378906 8.953125 1.703125 C 8.921875 2.035156 8.90625 2.296875 8.90625 2.484375 C 8.925781 2.429688 8.953125 2.375 8.984375 2.3125 C 9.003906 2.269531 9.035156 2.238281 9.078125 2.21875 C 9.128906 2.207031 9.175781 2.21875 9.21875 2.25 Z M 9.21875 2.25 "/></g></g></g><g fill="#000000" fill-opacity="1"><g transform="translate(218.168241, 90.683713)"><g><path d="M 9.8125 -9.09375 C 9.851562 -9.070312 9.878906 -9.035156 9.890625 -8.984375 C 9.910156 -8.941406 9.910156 -8.898438 9.890625 -8.859375 C 9.835938 -8.765625 9.78125 -8.648438 9.71875 -8.515625 C 9.65625 -8.390625 9.582031 -8.25 9.5 -8.09375 C 9.300781 -7.695312 9.0625 -7.222656 8.78125 -6.671875 C 8.5 -6.117188 8.1875 -5.519531 7.84375 -4.875 C 7.507812 -4.238281 7.160156 -3.582031 6.796875 -2.90625 C 6.441406 -2.238281 6.078125 -1.585938 5.703125 -0.953125 C 5.242188 -0.171875 4.835938 0.488281 4.484375 1.03125 C 4.140625 1.570312 3.832031 2.015625 3.5625 2.359375 C 3.300781 2.703125 3.070312 2.960938 2.875 3.140625 C 2.675781 3.328125 2.507812 3.457031 2.375 3.53125 C 2.238281 3.601562 2.117188 3.640625 2.015625 3.640625 C 1.972656 3.640625 1.929688 3.632812 1.890625 3.625 C 1.722656 3.582031 1.597656 3.476562 1.515625 3.3125 C 1.441406 3.144531 1.394531 2.953125 1.375 2.734375 C 1.351562 2.515625 1.34375 2.304688 1.34375 2.109375 C 1.351562 1.796875 1.390625 1.410156 1.453125 0.953125 C 1.515625 0.503906 1.597656 0.0078125 1.703125 -0.53125 C 1.804688 -1.082031 1.921875 -1.648438 2.046875 -2.234375 C 2.171875 -2.828125 2.300781 -3.40625 2.4375 -3.96875 C 2.570312 -4.539062 2.703125 -5.082031 2.828125 -5.59375 C 2.953125 -6.113281 3.0625 -6.566406 3.15625 -6.953125 C 3.195312 -7.117188 3.234375 -7.265625 3.265625 -7.390625 C 3.304688 -7.523438 3.335938 -7.644531 3.359375 -7.75 C 3.441406 -8.101562 3.484375 -8.367188 3.484375 -8.546875 C 3.484375 -8.722656 3.460938 -8.84375 3.421875 -8.90625 C 3.390625 -8.96875 3.375 -9 3.375 -9 C 3.332031 -9.03125 3.257812 -9.03125 3.15625 -9 C 3.0625 -8.96875 2.929688 -8.882812 2.765625 -8.75 C 2.566406 -8.601562 2.363281 -8.410156 2.15625 -8.171875 C 1.957031 -7.929688 1.765625 -7.664062 1.578125 -7.375 C 1.390625 -7.09375 1.234375 -6.804688 1.109375 -6.515625 C 0.984375 -6.222656 0.894531 -5.941406 0.84375 -5.671875 C 0.800781 -5.398438 0.816406 -5.164062 0.890625 -4.96875 C 1.023438 -4.550781 1.429688 -4.335938 2.109375 -4.328125 C 2.148438 -4.328125 2.1875 -4.304688 2.21875 -4.265625 C 2.257812 -4.222656 2.28125 -4.179688 2.28125 -4.140625 C 2.28125 -4.085938 2.257812 -4.039062 2.21875 -4 C 2.1875 -3.96875 2.148438 -3.957031 2.109375 -3.96875 C 1.753906 -3.96875 1.46875 -4.015625 1.25 -4.109375 C 1.039062 -4.203125 0.878906 -4.3125 0.765625 -4.4375 C 0.660156 -4.570312 0.585938 -4.710938 0.546875 -4.859375 C 0.453125 -5.109375 0.429688 -5.390625 0.484375 -5.703125 C 0.535156 -6.015625 0.632812 -6.332031 0.78125 -6.65625 C 0.925781 -6.988281 1.097656 -7.304688 1.296875 -7.609375 C 1.503906 -7.921875 1.71875 -8.195312 1.9375 -8.4375 C 2.15625 -8.6875 2.359375 -8.890625 2.546875 -9.046875 C 2.816406 -9.242188 3.03125 -9.347656 3.1875 -9.359375 C 3.351562 -9.378906 3.476562 -9.359375 3.5625 -9.296875 C 3.863281 -9.097656 3.910156 -8.554688 3.703125 -7.671875 C 3.679688 -7.566406 3.648438 -7.445312 3.609375 -7.3125 C 3.578125 -7.175781 3.546875 -7.023438 3.515625 -6.859375 C 3.421875 -6.503906 3.3125 -6.078125 3.1875 -5.578125 C 3.070312 -5.085938 2.945312 -4.554688 2.8125 -3.984375 C 2.675781 -3.421875 2.539062 -2.84375 2.40625 -2.25 C 2.28125 -1.664062 2.164062 -1.097656 2.0625 -0.546875 C 1.957031 0.00390625 1.875 0.507812 1.8125 0.96875 C 1.75 1.425781 1.710938 1.804688 1.703125 2.109375 C 1.703125 2.441406 1.71875 2.691406 1.75 2.859375 C 1.789062 3.023438 1.832031 3.132812 1.875 3.1875 C 1.914062 3.238281 1.945312 3.269531 1.96875 3.28125 C 2 3.28125 2.0625 3.265625 2.15625 3.234375 C 2.25 3.203125 2.382812 3.101562 2.5625 2.9375 C 2.75 2.78125 2.992188 2.503906 3.296875 2.109375 C 3.867188 1.367188 4.566406 0.285156 5.390625 -1.140625 C 5.753906 -1.773438 6.117188 -2.425781 6.484375 -3.09375 C 6.859375 -3.757812 7.207031 -4.410156 7.53125 -5.046875 C 7.863281 -5.679688 8.171875 -6.273438 8.453125 -6.828125 C 8.734375 -7.378906 8.976562 -7.851562 9.1875 -8.25 C 9.257812 -8.414062 9.328125 -8.5625 9.390625 -8.6875 C 9.460938 -8.8125 9.519531 -8.921875 9.5625 -9.015625 C 9.582031 -9.054688 9.613281 -9.082031 9.65625 -9.09375 C 9.707031 -9.113281 9.757812 -9.113281 9.8125 -9.09375 Z M 9.8125 -9.09375 "/></g></g></g><g fill="#000000" fill-opacity="1"><g transform="translate(233.529902, 90.683713)"><g><path d="M 9.390625 2.25 C 9.429688 2.28125 9.453125 2.320312 9.453125 2.375 C 9.460938 2.425781 9.453125 2.472656 9.421875 2.515625 C 9.085938 2.921875 8.738281 3.125 8.375 3.125 C 8.363281 3.125 8.347656 3.125 8.328125 3.125 C 8.066406 3.113281 7.804688 3.003906 7.546875 2.796875 C 7.296875 2.597656 7.039062 2.332031 6.78125 2 C 6.519531 1.675781 6.253906 1.316406 5.984375 0.921875 C 5.703125 0.523438 5.398438 0.125 5.078125 -0.28125 C 4.765625 -0.695312 4.429688 -1.0625 4.078125 -1.375 C 3.703125 -1.28125 3.332031 -1.238281 2.96875 -1.25 C 2.820312 -0.664062 2.675781 -0.0820312 2.53125 0.5 C 2.394531 1.09375 2.265625 1.65625 2.140625 2.1875 C 2.023438 2.71875 1.921875 3.191406 1.828125 3.609375 C 1.742188 4.035156 1.679688 4.382812 1.640625 4.65625 C 1.660156 4.613281 1.6875 4.5625 1.71875 4.5 C 1.726562 4.457031 1.753906 4.425781 1.796875 4.40625 C 1.847656 4.394531 1.898438 4.398438 1.953125 4.421875 C 1.992188 4.441406 2.019531 4.472656 2.03125 4.515625 C 2.050781 4.566406 2.054688 4.613281 2.046875 4.65625 C 1.921875 4.914062 1.816406 5.109375 1.734375 5.234375 C 1.660156 5.359375 1.578125 5.421875 1.484375 5.421875 C 1.460938 5.421875 1.441406 5.414062 1.421875 5.40625 C 1.367188 5.382812 1.328125 5.347656 1.296875 5.296875 C 1.265625 5.242188 1.25 5.144531 1.25 5 C 1.257812 4.851562 1.285156 4.632812 1.328125 4.34375 C 1.378906 4.0625 1.457031 3.675781 1.5625 3.1875 C 1.664062 2.707031 1.800781 2.101562 1.96875 1.375 C 2.132812 0.644531 2.34375 -0.238281 2.59375 -1.28125 C 2.257812 -1.3125 2.003906 -1.394531 1.828125 -1.53125 C 1.648438 -1.664062 1.535156 -1.804688 1.484375 -1.953125 C 1.410156 -2.160156 1.46875 -2.335938 1.65625 -2.484375 C 1.789062 -2.585938 1.960938 -2.640625 2.171875 -2.640625 C 2.390625 -2.640625 2.628906 -2.59375 2.890625 -2.5 C 2.929688 -2.65625 2.972656 -2.8125 3.015625 -2.96875 C 3.054688 -3.132812 3.09375 -3.300781 3.125 -3.46875 C 3.269531 -4.019531 3.40625 -4.554688 3.53125 -5.078125 C 3.65625 -5.597656 3.769531 -6.082031 3.875 -6.53125 C 3.988281 -6.976562 4.078125 -7.359375 4.140625 -7.671875 C 4.148438 -7.722656 4.175781 -7.757812 4.21875 -7.78125 C 4.257812 -7.8125 4.304688 -7.820312 4.359375 -7.8125 C 4.410156 -7.800781 4.445312 -7.773438 4.46875 -7.734375 C 4.488281 -7.691406 4.5 -7.644531 4.5 -7.59375 C 4.425781 -7.28125 4.332031 -6.898438 4.21875 -6.453125 C 4.113281 -6.015625 4 -5.53125 3.875 -5 C 3.75 -4.476562 3.617188 -3.9375 3.484375 -3.375 C 3.441406 -3.21875 3.398438 -3.050781 3.359375 -2.875 C 3.316406 -2.707031 3.273438 -2.535156 3.234375 -2.359375 C 3.390625 -2.285156 3.546875 -2.203125 3.703125 -2.109375 C 3.859375 -2.015625 4.007812 -1.90625 4.15625 -1.78125 C 4.570312 -1.894531 5 -2.078125 5.4375 -2.328125 C 5.875 -2.578125 6.300781 -2.90625 6.71875 -3.3125 C 7.144531 -3.726562 7.535156 -4.238281 7.890625 -4.84375 C 8.148438 -5.289062 8.34375 -5.726562 8.46875 -6.15625 C 8.601562 -6.582031 8.664062 -6.976562 8.65625 -7.34375 C 8.644531 -7.707031 8.5625 -8.015625 8.40625 -8.265625 C 8.050781 -8.828125 7.378906 -9.070312 6.390625 -9 C 5.890625 -8.96875 5.375 -8.863281 4.84375 -8.6875 C 4.320312 -8.519531 3.816406 -8.296875 3.328125 -8.015625 C 2.847656 -7.742188 2.414062 -7.4375 2.03125 -7.09375 C 1.65625 -6.757812 1.363281 -6.410156 1.15625 -6.046875 C 0.757812 -5.347656 0.71875 -4.6875 1.03125 -4.0625 C 1.050781 -4.019531 1.050781 -3.972656 1.03125 -3.921875 C 1.019531 -3.878906 0.992188 -3.84375 0.953125 -3.8125 C 0.910156 -3.800781 0.863281 -3.800781 0.8125 -3.8125 C 0.769531 -3.832031 0.734375 -3.863281 0.703125 -3.90625 C 0.335938 -4.644531 0.382812 -5.414062 0.84375 -6.21875 C 1.0625 -6.613281 1.367188 -6.988281 1.765625 -7.34375 C 2.171875 -7.707031 2.625 -8.035156 3.125 -8.328125 C 3.632812 -8.617188 4.164062 -8.851562 4.71875 -9.03125 C 5.28125 -9.207031 5.832031 -9.320312 6.375 -9.375 C 6.832031 -9.40625 7.21875 -9.375 7.53125 -9.28125 C 7.851562 -9.1875 8.101562 -9.0625 8.28125 -8.90625 C 8.46875 -8.757812 8.609375 -8.609375 8.703125 -8.453125 C 8.890625 -8.160156 8.992188 -7.8125 9.015625 -7.40625 C 9.035156 -7 8.972656 -6.5625 8.828125 -6.09375 C 8.691406 -5.625 8.476562 -5.144531 8.1875 -4.65625 C 7.914062 -4.175781 7.582031 -3.726562 7.1875 -3.3125 C 6.800781 -2.894531 6.390625 -2.535156 5.953125 -2.234375 C 5.484375 -1.898438 4.992188 -1.648438 4.484375 -1.484375 C 4.816406 -1.171875 5.128906 -0.816406 5.421875 -0.421875 C 5.722656 -0.0351562 6.007812 0.34375 6.28125 0.71875 C 6.53125 1.0625 6.769531 1.390625 7 1.703125 C 7.238281 2.015625 7.46875 2.265625 7.6875 2.453125 C 7.914062 2.648438 8.132812 2.753906 8.34375 2.765625 C 8.601562 2.773438 8.867188 2.613281 9.140625 2.28125 C 9.171875 2.238281 9.207031 2.210938 9.25 2.203125 C 9.300781 2.203125 9.347656 2.21875 9.390625 2.25 Z M 1.828125 -2.046875 C 1.859375 -1.960938 1.941406 -1.878906 2.078125 -1.796875 C 2.222656 -1.710938 2.425781 -1.65625 2.6875 -1.625 C 2.726562 -1.789062 2.769531 -1.960938 2.8125 -2.140625 C 2.695312 -2.179688 2.582031 -2.21875 2.46875 -2.25 C 2.363281 -2.28125 2.265625 -2.296875 2.171875 -2.296875 C 2.046875 -2.296875 1.945312 -2.265625 1.875 -2.203125 C 1.820312 -2.160156 1.804688 -2.109375 1.828125 -2.046875 Z M 3.046875 -1.609375 C 3.265625 -1.609375 3.484375 -1.628906 3.703125 -1.671875 C 3.640625 -1.710938 3.578125 -1.753906 3.515625 -1.796875 C 3.460938 -1.828125 3.40625 -1.859375 3.34375 -1.890625 C 3.28125 -1.929688 3.210938 -1.96875 3.140625 -2 C 3.128906 -1.9375 3.113281 -1.867188 3.09375 -1.796875 C 3.082031 -1.734375 3.066406 -1.671875 3.046875 -1.609375 Z M 3.046875 -1.609375 "/></g></g></g></svg>