<svg xmlns="http://www.w3.org/2000/svg" xmlns:xlink="http://www.w3.org/1999/xlink" width="500" zoomAndPan="magnify" viewBox="0 0 375 374.999991" height="500" preserveAspectRatio="xMidYMid meet" version="1.0"><defs><g/><clipPath id="9c10b82cf2"><path d="M 166 195 L 361 195 L 361 231 L 166 231 Z M 166 195 " clip-rule="nonzero"/></clipPath><clipPath id="b82c586359"><path d="M 164.324219 205.078125 L 360.574219 195.21875 L 362.605469 235.664062 L 166.355469 245.527344 Z M 164.324219 205.078125 " clip-rule="nonzero"/></clipPath><clipPath id="fb752f2ec9"><path d="M 164.324219 205.078125 L 360.574219 195.21875 L 362.605469 235.664062 L 166.355469 245.527344 Z M 164.324219 205.078125 " clip-rule="nonzero"/></clipPath></defs><g fill="#000000" fill-opacity="1"><g transform="translate(20.915446, 212.183823)"><g><path d="M 72.1875 -20.796875 C 72.457031 -20.460938 72.5625 -20.101562 72.5 -19.71875 C 72.4375 -19.34375 72.238281 -19.023438 71.90625 -18.765625 C 64.457031 -12.828125 57.671875 -7.238281 51.546875 -2 C 52.296875 0.0195312 52.484375 2.265625 52.109375 4.734375 C 51.523438 9.003906 50.285156 13.019531 48.390625 16.78125 C 46.503906 20.550781 44.253906 24.015625 41.640625 27.171875 C 39.023438 30.328125 36.265625 33.066406 33.359375 35.390625 C 30.460938 37.710938 27.671875 39.550781 24.984375 40.90625 C 22.304688 42.257812 19.976562 43.0625 18 43.3125 C 17.695312 43.375 17.421875 43.410156 17.171875 43.421875 C 15.628906 43.492188 14.515625 43.238281 13.828125 42.65625 C 13.148438 42.082031 12.695312 41.523438 12.46875 40.984375 C 11.164062 37.890625 13.585938 32.578125 19.734375 25.046875 C 25.878906 17.523438 35.296875 8.273438 47.984375 -2.703125 C 46.191406 -5.566406 42.753906 -8.117188 37.671875 -10.359375 C 32.585938 -12.609375 25.878906 -15.171875 17.546875 -18.046875 C 16.578125 -18.398438 15.582031 -18.75 14.5625 -19.09375 C 13.539062 -19.4375 12.492188 -19.804688 11.421875 -20.203125 C 7.753906 -21.523438 5.160156 -23.421875 3.640625 -25.890625 C 2.117188 -28.367188 1.800781 -31.273438 2.6875 -34.609375 C 3.351562 -37.191406 4.617188 -39.851562 6.484375 -42.59375 C 8.347656 -45.332031 10.628906 -48.082031 13.328125 -50.84375 C 16.035156 -53.613281 19.003906 -56.265625 22.234375 -58.796875 C 25.460938 -61.328125 28.769531 -63.65625 32.15625 -65.78125 C 35.550781 -67.90625 38.882812 -69.722656 42.15625 -71.234375 C 45.425781 -72.742188 48.453125 -73.84375 51.234375 -74.53125 C 54.023438 -75.21875 56.40625 -75.382812 58.375 -75.03125 C 59.175781 -74.875 60.078125 -74.539062 61.078125 -74.03125 C 62.078125 -73.53125 62.890625 -72.6875 63.515625 -71.5 C 64.148438 -70.320312 64.398438 -68.65625 64.265625 -66.5 C 64.191406 -66.082031 64.007812 -65.753906 63.71875 -65.515625 C 63.425781 -65.273438 63.082031 -65.175781 62.6875 -65.21875 C 62.289062 -65.25 61.957031 -65.414062 61.6875 -65.71875 C 61.425781 -66.03125 61.3125 -66.382812 61.34375 -66.78125 C 61.53125 -68.90625 61.234375 -70.296875 60.453125 -70.953125 C 59.671875 -71.609375 58.820312 -72.007812 57.90625 -72.15625 C 55.988281 -72.507812 53.488281 -72.234375 50.40625 -71.328125 C 47.332031 -70.429688 43.921875 -69 40.171875 -67.03125 C 36.429688 -65.070312 32.609375 -62.695312 28.703125 -59.90625 C 24.554688 -57 20.847656 -54 17.578125 -50.90625 C 14.304688 -47.820312 11.628906 -44.828125 9.546875 -41.921875 C 7.472656 -39.023438 6.117188 -36.359375 5.484375 -33.921875 C 4.109375 -28.710938 6.421875 -25.03125 12.421875 -22.875 C 13.492188 -22.539062 14.523438 -22.195312 15.515625 -21.84375 C 16.503906 -21.488281 17.5 -21.140625 18.5 -20.796875 C 23.644531 -19.003906 28.320312 -17.300781 32.53125 -15.6875 C 36.738281 -14.070312 40.34375 -12.390625 43.34375 -10.640625 C 46.351562 -8.898438 48.640625 -6.894531 50.203125 -4.625 C 56.242188 -9.820312 62.890625 -15.273438 70.140625 -20.984375 C 70.484375 -21.253906 70.84375 -21.363281 71.21875 -21.3125 C 71.601562 -21.257812 71.925781 -21.085938 72.1875 -20.796875 Z M 49.3125 4.265625 C 49.53125 2.753906 49.484375 1.359375 49.171875 0.078125 C 38.960938 8.941406 30.910156 16.691406 25.015625 23.328125 C 21.566406 27.253906 18.941406 30.722656 17.140625 33.734375 C 15.335938 36.742188 14.660156 38.789062 15.109375 39.875 C 15.285156 40.257812 15.648438 40.472656 16.203125 40.515625 C 16.753906 40.566406 17.234375 40.5625 17.640625 40.5 C 19.273438 40.3125 21.304688 39.582031 23.734375 38.3125 C 26.171875 37.039062 28.734375 35.320312 31.421875 33.15625 C 34.109375 31 36.703125 28.457031 39.203125 25.53125 C 41.710938 22.613281 43.875 19.359375 45.6875 15.765625 C 47.5 12.171875 48.707031 8.335938 49.3125 4.265625 Z M 49.3125 4.265625 "/></g></g></g><g fill="#000000" fill-opacity="1"><g transform="translate(91.034011, 208.660607)"><g><path d="M 60.890625 -47.28125 C 61.160156 -46.988281 61.273438 -46.644531 61.234375 -46.25 C 61.203125 -45.851562 61.019531 -45.519531 60.6875 -45.25 C 60.113281 -44.820312 59.535156 -44.816406 58.953125 -45.234375 C 58.296875 -45.453125 56.804688 -45.550781 54.484375 -45.53125 C 52.160156 -45.519531 49.253906 -45.4375 45.765625 -45.28125 C 42.285156 -45.132812 38.453125 -44.929688 34.265625 -44.671875 C 30.085938 -44.410156 25.789062 -44.128906 21.375 -43.828125 C 16.96875 -43.535156 12.695312 -43.234375 8.5625 -42.921875 C 7.34375 -36.367188 6.078125 -29.25 4.765625 -21.5625 C 3.453125 -13.875 2.171875 -6.078125 0.921875 1.828125 C -0.703125 12.210938 -1.9375 20.722656 -2.78125 27.359375 C -3.625 33.992188 -4.144531 38.789062 -4.34375 41.75 C -4.238281 41.738281 -4.144531 41.757812 -4.0625 41.8125 C -3.65625 41.894531 -3.367188 42.113281 -3.203125 42.46875 C -3.035156 42.832031 -3.015625 43.191406 -3.140625 43.546875 C -3.398438 44.410156 -3.695312 45.210938 -4.03125 45.953125 C -4.363281 46.691406 -4.851562 47.078125 -5.5 47.109375 C -5.644531 47.117188 -5.820312 47.109375 -6.03125 47.078125 C -6.738281 46.859375 -7.148438 46.335938 -7.265625 45.515625 C -7.378906 44.703125 -7.375 43.570312 -7.25 42.125 C -7.15625 40.007812 -6.859375 36.96875 -6.359375 33 C -5.941406 29.28125 -5.382812 24.929688 -4.6875 19.953125 C -4 14.972656 -3.175781 9.507812 -2.21875 3.5625 C -0.96875 -4.488281 0.328125 -12.492188 1.671875 -20.453125 C 3.023438 -28.421875 4.320312 -35.84375 5.5625 -42.71875 C 3.1875 -42.539062 0.925781 -42.375 -1.21875 -42.21875 C -3.363281 -42.0625 -5.304688 -41.914062 -7.046875 -41.78125 C -10.378906 -41.507812 -13.289062 -41.285156 -15.78125 -41.109375 C -18.269531 -40.929688 -20.035156 -40.816406 -21.078125 -40.765625 C -21.472656 -40.742188 -21.816406 -40.863281 -22.109375 -41.125 C -22.398438 -41.382812 -22.554688 -41.707031 -22.578125 -42.09375 C -22.597656 -42.5 -22.472656 -42.84375 -22.203125 -43.125 C -21.941406 -43.414062 -21.613281 -43.570312 -21.21875 -43.59375 C -20.175781 -43.644531 -18.421875 -43.769531 -15.953125 -43.96875 C -13.492188 -44.175781 -10.597656 -44.410156 -7.265625 -44.671875 C -4.878906 -44.835938 -2.5625 -45.003906 -0.3125 -45.171875 C 1.925781 -45.335938 4.085938 -45.5 6.171875 -45.65625 C 6.753906 -48.882812 7.335938 -51.925781 7.921875 -54.78125 C 8.503906 -57.632812 9.0625 -60.25 9.59375 -62.625 C 9.675781 -63.019531 9.882812 -63.328125 10.21875 -63.546875 C 10.5625 -63.765625 10.910156 -63.832031 11.265625 -63.75 C 11.671875 -63.664062 11.976562 -63.453125 12.1875 -63.109375 C 12.40625 -62.773438 12.476562 -62.410156 12.40625 -62.015625 C 11.4375 -57.515625 10.328125 -52.132812 9.078125 -45.875 C 16.859375 -46.414062 23.507812 -46.859375 29.03125 -47.203125 C 34.5625 -47.554688 39.195312 -47.828125 42.9375 -48.015625 C 46.675781 -48.203125 49.703125 -48.304688 52.015625 -48.328125 C 54.335938 -48.347656 56.097656 -48.320312 57.296875 -48.25 C 58.503906 -48.1875 59.363281 -48.066406 59.875 -47.890625 C 60.382812 -47.722656 60.722656 -47.519531 60.890625 -47.28125 Z M 60.890625 -47.28125 "/></g></g></g><g fill="#000000" fill-opacity="1"><g transform="translate(100.976191, 208.161047)"><g><path d="M 24.421875 -17.9375 C 24.785156 -17.757812 25 -17.472656 25.0625 -17.078125 C 25.132812 -16.679688 25.082031 -16.328125 24.90625 -16.015625 C 22.164062 -11.773438 19.640625 -8.257812 17.328125 -5.46875 C 15.023438 -2.6875 12.691406 -0.363281 10.328125 1.5 C 8.554688 2.894531 6.78125 3.640625 5 3.734375 C 3.59375 3.796875 2.347656 3.476562 1.265625 2.78125 C 0.546875 2.320312 -0.179688 1.472656 -0.921875 0.234375 C -1.671875 -1.003906 -2.128906 -2.828125 -2.296875 -5.234375 C -2.460938 -7.648438 -2.019531 -10.859375 -0.96875 -14.859375 C -0.96875 -14.859375 -0.96875 -14.882812 -0.96875 -14.9375 C 0.28125 -19.789062 1.847656 -23.53125 3.734375 -26.15625 C 5.628906 -28.78125 7.296875 -30.15625 8.734375 -30.28125 C 9.890625 -30.382812 10.664062 -29.921875 11.0625 -28.890625 C 11.6875 -27.472656 11.140625 -25.382812 9.421875 -22.625 C 7.710938 -19.863281 5.140625 -16.898438 1.703125 -13.734375 C 0.785156 -10.179688 0.398438 -7.421875 0.546875 -5.453125 C 0.691406 -3.492188 1.035156 -2.085938 1.578125 -1.234375 C 2.128906 -0.390625 2.5625 0.148438 2.875 0.390625 C 4.425781 1.410156 6.328125 1.007812 8.578125 -0.8125 C 10.785156 -2.519531 12.992188 -4.710938 15.203125 -7.390625 C 17.421875 -10.078125 19.828125 -13.460938 22.421875 -17.546875 C 22.660156 -17.859375 22.976562 -18.0625 23.375 -18.15625 C 23.769531 -18.25 24.117188 -18.175781 24.421875 -17.9375 Z M 8.375 -27.109375 C 7.84375 -26.734375 7.132812 -25.957031 6.25 -24.78125 C 5.363281 -23.601562 4.472656 -21.921875 3.578125 -19.734375 C 5.285156 -21.566406 6.476562 -23.113281 7.15625 -24.375 C 7.84375 -25.644531 8.25 -26.554688 8.375 -27.109375 Z M 8.375 -27.109375 "/></g></g></g><g fill="#000000" fill-opacity="1"><g transform="translate(122.729393, 207.068024)"><g><path d="M 14.1875 -20.578125 C 14.582031 -20.640625 14.945312 -20.550781 15.28125 -20.3125 C 15.613281 -20.082031 15.816406 -19.769531 15.890625 -19.375 C 15.960938 -18.988281 15.878906 -18.640625 15.640625 -18.328125 C 15.410156 -18.015625 15.097656 -17.828125 14.703125 -17.765625 C 12.867188 -17.421875 11.15625 -17.117188 9.5625 -16.859375 C 7.976562 -16.609375 6.320312 -16.335938 4.59375 -16.046875 C 3.40625 -9.785156 2.269531 -3.492188 1.1875 2.828125 C 0.101562 9.148438 -0.878906 15.15625 -1.765625 20.84375 C -2.648438 26.539062 -3.390625 31.601562 -3.984375 36.03125 C -4.585938 40.46875 -5.003906 43.929688 -5.234375 46.421875 C -5.179688 46.421875 -5.109375 46.421875 -5.015625 46.421875 C -4.648438 46.554688 -4.367188 46.800781 -4.171875 47.15625 C -3.984375 47.519531 -3.957031 47.882812 -4.09375 48.25 C -4.34375 49.207031 -4.644531 50.082031 -5 50.875 C -5.363281 51.675781 -5.875 52.09375 -6.53125 52.125 C -6.675781 52.132812 -6.820312 52.117188 -6.96875 52.078125 C -7.476562 51.941406 -7.832031 51.640625 -8.03125 51.171875 C -8.226562 50.710938 -8.300781 49.769531 -8.25 48.34375 C -8.195312 46.914062 -7.992188 44.722656 -7.640625 41.765625 C -7.015625 36.328125 -6 29.226562 -4.59375 20.46875 C -3.6875 14.519531 -2.703125 8.445312 -1.640625 2.25 C -0.585938 -3.9375 0.492188 -9.914062 1.609375 -15.6875 C -0.078125 -15.4375 -2.0625 -15.15625 -4.34375 -14.84375 C -4.394531 -14.84375 -4.445312 -14.84375 -4.5 -14.84375 C -5.34375 -14.800781 -5.84375 -15.222656 -6 -16.109375 C -6.019531 -16.515625 -5.910156 -16.875 -5.671875 -17.1875 C -5.429688 -17.5 -5.113281 -17.691406 -4.71875 -17.765625 C -3.375 -17.921875 -2.140625 -18.066406 -1.015625 -18.203125 C 0.0976562 -18.335938 1.148438 -18.476562 2.140625 -18.625 C 3.179688 -23.875 4.132812 -28.640625 5 -32.921875 C 5.207031 -33.890625 5.515625 -35.234375 5.921875 -36.953125 C 6.335938 -38.671875 6.835938 -40.515625 7.421875 -42.484375 C 8.003906 -44.460938 8.632812 -46.359375 9.3125 -48.171875 C 9.988281 -49.984375 10.722656 -51.507812 11.515625 -52.75 C 12.304688 -54 13.117188 -54.71875 13.953125 -54.90625 C 14.804688 -55.09375 15.492188 -54.820312 16.015625 -54.09375 C 16.710938 -53.175781 16.914062 -51.632812 16.625 -49.46875 C 16.332031 -47.300781 15.671875 -44.742188 14.640625 -41.796875 C 13.617188 -38.859375 12.363281 -35.75 10.875 -32.46875 C 9.394531 -29.195312 7.757812 -25.992188 5.96875 -22.859375 C 5.914062 -22.804688 5.890625 -22.757812 5.890625 -22.71875 C 5.773438 -22.101562 5.65625 -21.488281 5.53125 -20.875 C 5.414062 -20.269531 5.304688 -19.671875 5.203125 -19.078125 C 6.679688 -19.296875 8.132812 -19.515625 9.5625 -19.734375 C 11 -19.960938 12.539062 -20.242188 14.1875 -20.578125 Z M 13.78125 -50.90625 C 13.132812 -49.820312 12.289062 -47.894531 11.25 -45.125 C 10.21875 -42.351562 9.113281 -38.285156 7.9375 -32.921875 C 10.101562 -37.523438 11.597656 -41.335938 12.421875 -44.359375 C 13.242188 -47.378906 13.695312 -49.5625 13.78125 -50.90625 Z M 13.78125 -50.90625 "/></g></g></g><g fill="#000000" fill-opacity="1"><g transform="translate(139.698387, 206.215391)"><g><path d="M 30.484375 -18.1875 C 30.835938 -18.039062 31.085938 -17.785156 31.234375 -17.421875 C 31.378906 -17.054688 31.390625 -16.695312 31.265625 -16.34375 C 30.421875 -14.34375 29.484375 -12.34375 28.453125 -10.34375 C 27.429688 -8.34375 26.347656 -6.503906 25.203125 -4.828125 C 24.054688 -3.148438 22.859375 -1.789062 21.609375 -0.75 C 20.367188 0.289062 19.101562 0.84375 17.8125 0.90625 C 17.570312 0.914062 17.300781 0.90625 17 0.875 C 13.613281 0.394531 11.3125 -3.984375 10.09375 -12.265625 C 9.3125 -11.078125 8.394531 -9.742188 7.34375 -8.265625 C 6.289062 -6.796875 5.175781 -5.332031 4 -3.875 C 3.8125 -3.664062 3.503906 -3.335938 3.078125 -2.890625 C 2.648438 -2.441406 2.144531 -2.078125 1.5625 -1.796875 C 0.976562 -1.515625 0.375 -1.507812 -0.25 -1.78125 C -1.46875 -2.175781 -2.101562 -3.445312 -2.15625 -5.59375 C -2.21875 -6.832031 -2.054688 -8.382812 -1.671875 -10.25 C -1.296875 -12.125 -0.71875 -14.015625 0.0625 -15.921875 C 0.84375 -17.835938 1.78125 -19.546875 2.875 -21.046875 C 3.976562 -22.554688 5.238281 -23.597656 6.65625 -24.171875 C 7.53125 -24.566406 8.617188 -24.679688 9.921875 -24.515625 C 11.234375 -24.359375 12.632812 -23.492188 14.125 -21.921875 C 14.382812 -21.628906 14.507812 -21.28125 14.5 -20.875 C 14.5 -20.476562 14.351562 -20.144531 14.0625 -19.875 C 13.78125 -19.625 13.4375 -19.5 13.03125 -19.5 C 12.632812 -19.5 12.304688 -19.644531 12.046875 -19.9375 C 10.773438 -21.269531 9.703125 -21.878906 8.828125 -21.765625 C 7.960938 -21.648438 7.238281 -21.351562 6.65625 -20.875 C 5.613281 -20.007812 4.679688 -18.8125 3.859375 -17.28125 C 3.035156 -15.75 2.363281 -14.140625 1.84375 -12.453125 C 1.332031 -10.773438 0.988281 -9.222656 0.8125 -7.796875 C 0.632812 -6.367188 0.609375 -5.332031 0.734375 -4.6875 C 0.890625 -4.800781 1.046875 -4.9375 1.203125 -5.09375 C 1.367188 -5.25 1.546875 -5.453125 1.734375 -5.703125 C 3.148438 -7.421875 4.4375 -9.125 5.59375 -10.8125 C 6.757812 -12.5 7.757812 -13.988281 8.59375 -15.28125 C 8.832031 -15.632812 9.054688 -15.976562 9.265625 -16.3125 C 9.472656 -16.644531 9.664062 -16.941406 9.84375 -17.203125 C 10.21875 -17.722656 10.738281 -17.898438 11.40625 -17.734375 C 12.0625 -17.628906 12.429688 -17.226562 12.515625 -16.53125 C 12.828125 -13.28125 13.21875 -10.679688 13.6875 -8.734375 C 14.164062 -6.796875 14.648438 -5.347656 15.140625 -4.390625 C 15.640625 -3.441406 16.097656 -2.800781 16.515625 -2.46875 C 16.929688 -2.144531 17.238281 -1.988281 17.4375 -2 C 18.382812 -1.851562 19.851562 -2.898438 21.84375 -5.140625 C 23.84375 -7.390625 26.09375 -11.472656 28.59375 -17.390625 C 28.769531 -17.804688 29.039062 -18.085938 29.40625 -18.234375 C 29.769531 -18.378906 30.128906 -18.363281 30.484375 -18.1875 Z M 30.484375 -18.1875 "/></g></g></g><g fill="#000000" fill-opacity="1"><g transform="translate(167.506606, 204.818123)"><g><path d="M 29.296875 -18.1875 C 29.648438 -18.007812 29.882812 -17.734375 30 -17.359375 C 30.113281 -16.984375 30.085938 -16.625 29.921875 -16.28125 C 27.785156 -12.007812 25.835938 -8.71875 24.078125 -6.40625 C 22.316406 -4.101562 20.457031 -3.03125 18.5 -3.1875 C 15.988281 -3.351562 13.882812 -5.941406 12.1875 -10.953125 C 11.613281 -12.566406 11.117188 -13.726562 10.703125 -14.4375 C 10.296875 -15.144531 9.972656 -15.582031 9.734375 -15.75 C 9.503906 -15.914062 9.335938 -15.992188 9.234375 -15.984375 C 9.085938 -16.035156 8.796875 -15.867188 8.359375 -15.484375 C 7.921875 -15.109375 7.3125 -14.300781 6.53125 -13.0625 C 5.75 -11.820312 4.796875 -9.914062 3.671875 -7.34375 C 2.554688 -4.769531 1.207031 -1.238281 -0.375 3.25 C -0.582031 3.863281 -0.988281 4.1875 -1.59375 4.21875 C -1.738281 4.21875 -1.863281 4.195312 -1.96875 4.15625 C -2.820312 4 -3.222656 3.492188 -3.171875 2.640625 C -3.023438 0.578125 -2.691406 -1.8125 -2.171875 -4.53125 C -1.660156 -7.257812 -1.085938 -10.035156 -0.453125 -12.859375 C 0.171875 -15.691406 0.757812 -18.21875 1.3125 -20.4375 C 1.425781 -20.945312 1.535156 -21.414062 1.640625 -21.84375 C 1.742188 -22.28125 1.832031 -22.703125 1.90625 -23.109375 C 2.039062 -23.515625 2.28125 -23.8125 2.625 -24 C 2.96875 -24.195312 3.3125 -24.253906 3.65625 -24.171875 C 4.070312 -24.097656 4.382812 -23.882812 4.59375 -23.53125 C 4.8125 -23.1875 4.859375 -22.816406 4.734375 -22.421875 C 4.648438 -22.015625 4.554688 -21.59375 4.453125 -21.15625 C 4.347656 -20.726562 4.234375 -20.257812 4.109375 -19.75 C 3.828125 -18.457031 3.5 -17.023438 3.125 -15.453125 C 2.75 -13.878906 2.378906 -12.285156 2.015625 -10.671875 C 3.554688 -13.941406 4.894531 -16.128906 6.03125 -17.234375 C 7.175781 -18.347656 8.25 -18.910156 9.25 -18.921875 C 10.644531 -18.878906 11.773438 -18.15625 12.640625 -16.75 C 13.515625 -15.34375 14.273438 -13.707031 14.921875 -11.84375 C 15.804688 -9.28125 16.585938 -7.671875 17.265625 -7.015625 C 17.941406 -6.359375 18.429688 -6.035156 18.734375 -6.046875 C 19.378906 -5.972656 20.117188 -6.367188 20.953125 -7.234375 C 21.785156 -8.097656 22.609375 -9.1875 23.421875 -10.5 C 24.234375 -11.820312 24.992188 -13.125 25.703125 -14.40625 C 26.410156 -15.6875 26.941406 -16.738281 27.296875 -17.5625 C 27.484375 -17.914062 27.769531 -18.15625 28.15625 -18.28125 C 28.550781 -18.40625 28.929688 -18.375 29.296875 -18.1875 Z M 29.296875 -18.1875 "/></g></g></g><g fill="#000000" fill-opacity="1"><g transform="translate(194.193517, 203.477198)"><g><path d="M 21.046875 -18.140625 C 21.398438 -17.960938 21.625 -17.675781 21.71875 -17.28125 C 21.820312 -16.894531 21.785156 -16.519531 21.609375 -16.15625 C 20.722656 -14.601562 19.609375 -12.867188 18.265625 -10.953125 C 16.921875 -9.035156 15.441406 -7.203125 13.828125 -5.453125 C 12.210938 -3.703125 10.59375 -2.234375 8.96875 -1.046875 C 7.351562 0.128906 5.851562 0.753906 4.46875 0.828125 C 3.863281 0.859375 3.332031 0.785156 2.875 0.609375 C 1.144531 -0.0546875 0.125 -1.816406 -0.1875 -4.671875 C -0.507812 -7.523438 -0.128906 -11.609375 0.953125 -16.921875 C 1.035156 -17.316406 1.242188 -17.625 1.578125 -17.84375 C 1.921875 -18.070312 2.269531 -18.140625 2.625 -18.046875 C 3.03125 -17.960938 3.335938 -17.75 3.546875 -17.40625 C 3.765625 -17.070312 3.832031 -16.734375 3.75 -16.390625 C 3.113281 -13.148438 2.738281 -10.59375 2.625 -8.71875 C 2.519531 -6.84375 2.554688 -5.429688 2.734375 -4.484375 C 2.910156 -3.546875 3.128906 -2.921875 3.390625 -2.609375 C 3.660156 -2.296875 3.820312 -2.144531 3.875 -2.15625 C 4.53125 -1.882812 5.460938 -2.140625 6.671875 -2.921875 C 7.878906 -3.710938 9.222656 -4.851562 10.703125 -6.34375 C 12.179688 -7.84375 13.660156 -9.566406 15.140625 -11.515625 C 16.617188 -13.460938 17.921875 -15.492188 19.046875 -17.609375 C 19.273438 -17.960938 19.570312 -18.1875 19.9375 -18.28125 C 20.3125 -18.382812 20.679688 -18.335938 21.046875 -18.140625 Z M 3.109375 -23.25 C 2.109375 -23.238281 1.582031 -23.492188 1.53125 -24.015625 C 1.476562 -24.546875 1.675781 -25.09375 2.125 -25.65625 C 2.570312 -26.226562 3.035156 -26.632812 3.515625 -26.875 C 4.304688 -27.15625 4.894531 -27.128906 5.28125 -26.796875 C 5.675781 -26.460938 5.875 -26.019531 5.875 -25.46875 C 5.875 -24.925781 5.648438 -24.414062 5.203125 -23.9375 C 4.753906 -23.46875 4.054688 -23.238281 3.109375 -23.25 Z M 3.109375 -23.25 "/></g></g></g><g fill="#000000" fill-opacity="1"><g transform="translate(213.106103, 202.526906)"><g><path d="M 24.421875 -17.9375 C 24.785156 -17.757812 25 -17.472656 25.0625 -17.078125 C 25.132812 -16.679688 25.082031 -16.328125 24.90625 -16.015625 C 22.164062 -11.773438 19.640625 -8.257812 17.328125 -5.46875 C 15.023438 -2.6875 12.691406 -0.363281 10.328125 1.5 C 8.554688 2.894531 6.78125 3.640625 5 3.734375 C 3.59375 3.796875 2.347656 3.476562 1.265625 2.78125 C 0.546875 2.320312 -0.179688 1.472656 -0.921875 0.234375 C -1.671875 -1.003906 -2.128906 -2.828125 -2.296875 -5.234375 C -2.460938 -7.648438 -2.019531 -10.859375 -0.96875 -14.859375 C -0.96875 -14.859375 -0.96875 -14.882812 -0.96875 -14.9375 C 0.28125 -19.789062 1.847656 -23.53125 3.734375 -26.15625 C 5.628906 -28.78125 7.296875 -30.15625 8.734375 -30.28125 C 9.890625 -30.382812 10.664062 -29.921875 11.0625 -28.890625 C 11.6875 -27.472656 11.140625 -25.382812 9.421875 -22.625 C 7.710938 -19.863281 5.140625 -16.898438 1.703125 -13.734375 C 0.785156 -10.179688 0.398438 -7.421875 0.546875 -5.453125 C 0.691406 -3.492188 1.035156 -2.085938 1.578125 -1.234375 C 2.128906 -0.390625 2.5625 0.148438 2.875 0.390625 C 4.425781 1.410156 6.328125 1.007812 8.578125 -0.8125 C 10.785156 -2.519531 12.992188 -4.710938 15.203125 -7.390625 C 17.421875 -10.078125 19.828125 -13.460938 22.421875 -17.546875 C 22.660156 -17.859375 22.976562 -18.0625 23.375 -18.15625 C 23.769531 -18.25 24.117188 -18.175781 24.421875 -17.9375 Z M 8.375 -27.109375 C 7.84375 -26.734375 7.132812 -25.957031 6.25 -24.78125 C 5.363281 -23.601562 4.472656 -21.921875 3.578125 -19.734375 C 5.285156 -21.566406 6.476562 -23.113281 7.15625 -24.375 C 7.84375 -25.644531 8.25 -26.554688 8.375 -27.109375 Z M 8.375 -27.109375 "/></g></g></g><g clip-path="url(#9c10b82cf2)"><g clip-path="url(#b82c586359)"><g clip-path="url(#fb752f2ec9)"><path fill="#000000" d="M 168.464844 229.71875 C 168.050781 230.277344 167.265625 230.394531 166.707031 229.984375 C 166.148438 229.570312 166.027344 228.785156 166.441406 228.226562 C 169.007812 224.746094 171.316406 222.042969 173.847656 219.804688 L 173.921875 219.746094 C 176.445312 217.523438 179.171875 215.789062 182.558594 214.238281 C 204.273438 204.289062 235.226562 210.585938 265.398438 216.726562 C 307.34375 225.265625 347.757812 233.488281 357.828125 196.386719 C 358.007812 195.71875 358.695312 195.320312 359.367188 195.503906 C 360.039062 195.679688 360.433594 196.371094 360.25 197.042969 C 349.566406 236.410156 308.023438 227.957031 264.902344 219.183594 C 235.121094 213.121094 204.574219 206.902344 183.59375 216.511719 C 180.433594 217.957031 177.902344 219.570312 175.570312 221.621094 L 175.507812 221.683594 C 173.136719 223.78125 170.933594 226.363281 168.464844 229.714844 Z M 168.464844 229.71875 " fill-opacity="1" fill-rule="evenodd"/></g></g></g><g fill="#000000" fill-opacity="1"><g transform="translate(189.479918, 238.416445)"><g><path d="M 6 -11.53125 C 6.207031 -11.40625 6.320312 -11.160156 6.34375 -10.796875 C 6.363281 -10.429688 6.300781 -9.929688 6.15625 -9.296875 C 6.070312 -8.953125 5.960938 -8.503906 5.828125 -7.953125 C 5.703125 -7.398438 5.554688 -6.769531 5.390625 -6.0625 C 5.234375 -5.351562 5.066406 -4.601562 4.890625 -3.8125 C 4.710938 -3.019531 4.53125 -2.210938 4.34375 -1.390625 C 4.164062 -0.566406 3.988281 0.238281 3.8125 1.03125 C 3.632812 1.820312 3.472656 2.5625 3.328125 3.25 C 3.191406 3.945312 3.070312 4.5625 2.96875 5.09375 C 2.863281 5.632812 2.785156 6.0625 2.734375 6.375 C 2.734375 6.382812 2.734375 6.390625 2.734375 6.390625 C 2.796875 6.398438 2.835938 6.4375 2.859375 6.5 C 2.890625 6.5625 2.894531 6.617188 2.875 6.671875 C 2.820312 6.804688 2.765625 6.925781 2.703125 7.03125 C 2.648438 7.132812 2.578125 7.1875 2.484375 7.1875 C 2.453125 7.1875 2.425781 7.1875 2.40625 7.1875 C 2.289062 7.144531 2.226562 7.054688 2.21875 6.921875 C 2.21875 6.796875 2.242188 6.582031 2.296875 6.28125 C 2.359375 5.90625 2.457031 5.359375 2.59375 4.640625 C 2.84375 3.390625 3.207031 1.679688 3.6875 -0.484375 C 3.851562 -1.242188 4.019531 -2.003906 4.1875 -2.765625 C 4.363281 -3.523438 4.53125 -4.253906 4.6875 -4.953125 C 4.851562 -5.648438 5.003906 -6.296875 5.140625 -6.890625 C 5.273438 -7.484375 5.390625 -8 5.484375 -8.4375 C 5.585938 -8.875 5.664062 -9.195312 5.71875 -9.40625 C 5.84375 -9.894531 5.90625 -10.265625 5.90625 -10.515625 C 5.90625 -10.765625 5.882812 -10.929688 5.84375 -11.015625 C 5.800781 -11.097656 5.773438 -11.144531 5.765625 -11.15625 C 5.710938 -11.1875 5.617188 -11.179688 5.484375 -11.140625 C 5.347656 -11.097656 5.171875 -10.992188 4.953125 -10.828125 C 4.679688 -10.609375 4.378906 -10.3125 4.046875 -9.9375 C 3.710938 -9.5625 3.382812 -9.140625 3.0625 -8.671875 C 2.738281 -8.203125 2.4375 -7.707031 2.15625 -7.1875 C 1.875 -6.675781 1.632812 -6.164062 1.4375 -5.65625 C 1.25 -5.144531 1.125 -4.660156 1.0625 -4.203125 C 1 -3.753906 1.019531 -3.351562 1.125 -3 C 1.351562 -2.332031 1.957031 -1.992188 2.9375 -1.984375 C 3 -1.984375 3.050781 -1.957031 3.09375 -1.90625 C 3.132812 -1.863281 3.15625 -1.8125 3.15625 -1.75 C 3.15625 -1.695312 3.132812 -1.644531 3.09375 -1.59375 C 3.050781 -1.550781 3 -1.53125 2.9375 -1.53125 C 2.664062 -1.53125 2.378906 -1.566406 2.078125 -1.640625 C 1.773438 -1.710938 1.5 -1.84375 1.25 -2.03125 C 1.007812 -2.226562 0.828125 -2.503906 0.703125 -2.859375 C 0.585938 -3.210938 0.546875 -3.59375 0.578125 -4 C 0.617188 -4.40625 0.703125 -4.816406 0.828125 -5.234375 C 0.960938 -5.648438 1.109375 -6.039062 1.265625 -6.40625 C 1.429688 -6.78125 1.585938 -7.101562 1.734375 -7.375 C 2.015625 -7.882812 2.320312 -8.382812 2.65625 -8.875 C 3 -9.375 3.34375 -9.820312 3.6875 -10.21875 C 4.039062 -10.625 4.367188 -10.945312 4.671875 -11.1875 C 5.242188 -11.625 5.6875 -11.738281 6 -11.53125 Z M 6 -11.53125 "/></g></g></g><g fill="#000000" fill-opacity="1"><g transform="translate(204.768013, 238.416445)"><g><path d="M 11.53125 2.8125 C 11.582031 2.832031 11.613281 2.867188 11.625 2.921875 C 11.644531 2.984375 11.644531 3.046875 11.625 3.109375 C 11.5 3.347656 11.382812 3.53125 11.28125 3.65625 C 11.175781 3.78125 11.0625 3.816406 10.9375 3.765625 C 10.84375 3.734375 10.769531 3.660156 10.71875 3.546875 C 10.675781 3.429688 10.660156 3.21875 10.671875 2.90625 C 10.691406 2.601562 10.738281 2.164062 10.8125 1.59375 C 10.882812 1.03125 10.988281 0.28125 11.125 -0.65625 C 11.238281 -1.375 11.34375 -2.109375 11.4375 -2.859375 C 11.539062 -3.609375 11.625 -4.316406 11.6875 -4.984375 C 11.757812 -5.648438 11.785156 -6.21875 11.765625 -6.6875 C 11.765625 -6.863281 11.75 -7.0625 11.71875 -7.28125 C 11.6875 -7.5 11.628906 -7.691406 11.546875 -7.859375 C 11.460938 -8.035156 11.335938 -8.128906 11.171875 -8.140625 C 10.984375 -8.171875 10.726562 -8.078125 10.40625 -7.859375 C 10.09375 -7.648438 9.71875 -7.28125 9.28125 -6.75 C 8.84375 -6.21875 8.359375 -5.488281 7.828125 -4.5625 C 7.453125 -3.90625 7.019531 -3.0625 6.53125 -2.03125 C 6.050781 -1.007812 5.539062 0.21875 5 1.65625 C 4.457031 3.09375 3.925781 4.757812 3.40625 6.65625 C 3.394531 6.65625 3.390625 6.660156 3.390625 6.671875 C 3.335938 6.804688 3.285156 6.925781 3.234375 7.03125 C 3.179688 7.132812 3.101562 7.1875 3 7.1875 C 2.976562 7.1875 2.953125 7.179688 2.921875 7.171875 C 2.816406 7.140625 2.757812 7.050781 2.75 6.90625 C 2.75 6.769531 2.769531 6.5625 2.8125 6.28125 C 2.875 5.894531 2.972656 5.335938 3.109375 4.609375 C 3.347656 3.347656 3.703125 1.632812 4.171875 -0.53125 C 4.335938 -1.28125 4.503906 -2.03125 4.671875 -2.78125 C 4.835938 -3.539062 5 -4.269531 5.15625 -4.96875 C 5.320312 -5.675781 5.472656 -6.328125 5.609375 -6.921875 C 5.742188 -7.523438 5.863281 -8.050781 5.96875 -8.5 C 6.070312 -8.945312 6.148438 -9.285156 6.203125 -9.515625 C 6.316406 -9.972656 6.375 -10.316406 6.375 -10.546875 C 6.375 -10.785156 6.347656 -10.945312 6.296875 -11.03125 C 6.253906 -11.125 6.222656 -11.179688 6.203125 -11.203125 C 6.128906 -11.253906 5.992188 -11.25 5.796875 -11.1875 C 5.609375 -11.125 5.359375 -10.96875 5.046875 -10.71875 C 4.679688 -10.4375 4.300781 -10.082031 3.90625 -9.65625 C 3.507812 -9.226562 3.117188 -8.757812 2.734375 -8.25 C 2.359375 -7.738281 2.007812 -7.207031 1.6875 -6.65625 C 1.375 -6.113281 1.109375 -5.578125 0.890625 -5.046875 C 0.671875 -4.523438 0.519531 -4.035156 0.4375 -3.578125 C 0.363281 -3.128906 0.378906 -2.742188 0.484375 -2.421875 C 0.691406 -1.828125 1.242188 -1.519531 2.140625 -1.5 C 2.203125 -1.5 2.253906 -1.472656 2.296875 -1.421875 C 2.335938 -1.378906 2.359375 -1.328125 2.359375 -1.265625 C 2.359375 -1.203125 2.335938 -1.148438 2.296875 -1.109375 C 2.253906 -1.066406 2.203125 -1.046875 2.140625 -1.046875 C 1.878906 -1.054688 1.609375 -1.09375 1.328125 -1.15625 C 1.054688 -1.21875 0.800781 -1.335938 0.5625 -1.515625 C 0.332031 -1.691406 0.164062 -1.945312 0.0625 -2.28125 C -0.0507812 -2.625 -0.0820312 -3.003906 -0.03125 -3.421875 C 0.0195312 -3.835938 0.117188 -4.257812 0.265625 -4.6875 C 0.421875 -5.125 0.59375 -5.535156 0.78125 -5.921875 C 0.976562 -6.304688 1.164062 -6.640625 1.34375 -6.921875 C 1.664062 -7.484375 2.019531 -8.023438 2.40625 -8.546875 C 2.800781 -9.066406 3.203125 -9.546875 3.609375 -9.984375 C 4.015625 -10.429688 4.398438 -10.796875 4.765625 -11.078125 C 5.503906 -11.648438 6.0625 -11.816406 6.4375 -11.578125 C 6.84375 -11.316406 6.910156 -10.597656 6.640625 -9.421875 C 6.546875 -9.035156 6.425781 -8.523438 6.28125 -7.890625 C 6.132812 -7.265625 5.96875 -6.546875 5.78125 -5.734375 C 5.601562 -4.929688 5.414062 -4.082031 5.21875 -3.1875 C 5.019531 -2.289062 4.820312 -1.390625 4.625 -0.484375 C 4.425781 0.421875 4.238281 1.285156 4.0625 2.109375 C 3.894531 2.941406 3.742188 3.691406 3.609375 4.359375 C 4.265625 2.285156 4.945312 0.4375 5.65625 -1.1875 C 6.375 -2.820312 7.070312 -4.195312 7.75 -5.3125 C 8.4375 -6.4375 9.078125 -7.28125 9.671875 -7.84375 C 10.273438 -8.40625 10.796875 -8.660156 11.234375 -8.609375 C 11.367188 -8.578125 11.507812 -8.503906 11.65625 -8.390625 C 11.8125 -8.285156 11.941406 -8.097656 12.046875 -7.828125 C 12.148438 -7.566406 12.207031 -7.1875 12.21875 -6.6875 C 12.226562 -6.207031 12.195312 -5.628906 12.125 -4.953125 C 12.0625 -4.285156 11.976562 -3.570312 11.875 -2.8125 C 11.78125 -2.050781 11.679688 -1.3125 11.578125 -0.59375 C 11.503906 -0.132812 11.429688 0.332031 11.359375 0.8125 C 11.296875 1.289062 11.238281 1.734375 11.1875 2.140625 C 11.144531 2.546875 11.125 2.863281 11.125 3.09375 C 11.15625 3.03125 11.191406 2.96875 11.234375 2.90625 C 11.253906 2.84375 11.289062 2.800781 11.34375 2.78125 C 11.40625 2.769531 11.46875 2.78125 11.53125 2.8125 Z M 11.53125 2.8125 "/></g></g></g><g fill="#000000" fill-opacity="1"><g transform="translate(227.107935, 238.416445)"><g><path d="M 12.25 -11.375 C 12.3125 -11.34375 12.347656 -11.296875 12.359375 -11.234375 C 12.378906 -11.179688 12.378906 -11.125 12.359375 -11.0625 C 12.296875 -10.945312 12.222656 -10.804688 12.140625 -10.640625 C 12.066406 -10.484375 11.976562 -10.304688 11.875 -10.109375 C 11.625 -9.617188 11.320312 -9.023438 10.96875 -8.328125 C 10.613281 -7.640625 10.226562 -6.894531 9.8125 -6.09375 C 9.394531 -5.300781 8.957031 -4.484375 8.5 -3.640625 C 8.050781 -2.804688 7.59375 -1.988281 7.125 -1.1875 C 6.5625 -0.207031 6.054688 0.617188 5.609375 1.296875 C 5.171875 1.972656 4.785156 2.519531 4.453125 2.9375 C 4.117188 3.363281 3.828125 3.691406 3.578125 3.921875 C 3.335938 4.160156 3.132812 4.320312 2.96875 4.40625 C 2.800781 4.5 2.65625 4.546875 2.53125 4.546875 C 2.46875 4.546875 2.410156 4.539062 2.359375 4.53125 C 2.148438 4.476562 1.992188 4.347656 1.890625 4.140625 C 1.796875 3.929688 1.734375 3.6875 1.703125 3.40625 C 1.679688 3.132812 1.675781 2.875 1.6875 2.625 C 1.695312 2.238281 1.738281 1.757812 1.8125 1.1875 C 1.894531 0.625 2 0.00390625 2.125 -0.671875 C 2.25 -1.359375 2.390625 -2.066406 2.546875 -2.796875 C 2.710938 -3.535156 2.878906 -4.257812 3.046875 -4.96875 C 3.222656 -5.6875 3.382812 -6.363281 3.53125 -7 C 3.6875 -7.644531 3.828125 -8.207031 3.953125 -8.6875 C 4.003906 -8.894531 4.050781 -9.082031 4.09375 -9.25 C 4.132812 -9.414062 4.164062 -9.5625 4.1875 -9.6875 C 4.300781 -10.125 4.359375 -10.453125 4.359375 -10.671875 C 4.359375 -10.898438 4.332031 -11.050781 4.28125 -11.125 C 4.238281 -11.207031 4.21875 -11.25 4.21875 -11.25 C 4.164062 -11.28125 4.078125 -11.273438 3.953125 -11.234375 C 3.828125 -11.203125 3.660156 -11.101562 3.453125 -10.9375 C 3.203125 -10.75 2.945312 -10.503906 2.6875 -10.203125 C 2.4375 -9.910156 2.195312 -9.585938 1.96875 -9.234375 C 1.738281 -8.878906 1.546875 -8.515625 1.390625 -8.140625 C 1.234375 -7.773438 1.125 -7.425781 1.0625 -7.09375 C 1.007812 -6.757812 1.023438 -6.460938 1.109375 -6.203125 C 1.273438 -5.679688 1.78125 -5.414062 2.625 -5.40625 C 2.6875 -5.40625 2.738281 -5.378906 2.78125 -5.328125 C 2.832031 -5.285156 2.859375 -5.234375 2.859375 -5.171875 C 2.859375 -5.117188 2.832031 -5.066406 2.78125 -5.015625 C 2.738281 -4.972656 2.6875 -4.953125 2.625 -4.953125 C 2.195312 -4.953125 1.847656 -5.007812 1.578125 -5.125 C 1.304688 -5.25 1.097656 -5.394531 0.953125 -5.5625 C 0.816406 -5.726562 0.722656 -5.894531 0.671875 -6.0625 C 0.566406 -6.382812 0.546875 -6.738281 0.609375 -7.125 C 0.671875 -7.519531 0.789062 -7.921875 0.96875 -8.328125 C 1.15625 -8.742188 1.375 -9.140625 1.625 -9.515625 C 1.882812 -9.898438 2.148438 -10.25 2.421875 -10.5625 C 2.691406 -10.875 2.945312 -11.117188 3.1875 -11.296875 C 3.519531 -11.554688 3.785156 -11.691406 3.984375 -11.703125 C 4.191406 -11.722656 4.347656 -11.695312 4.453125 -11.625 C 4.835938 -11.375 4.898438 -10.691406 4.640625 -9.578125 C 4.609375 -9.453125 4.566406 -9.304688 4.515625 -9.140625 C 4.472656 -8.972656 4.429688 -8.785156 4.390625 -8.578125 C 4.273438 -8.140625 4.140625 -7.609375 3.984375 -6.984375 C 3.835938 -6.359375 3.679688 -5.691406 3.515625 -4.984375 C 3.347656 -4.273438 3.179688 -3.550781 3.015625 -2.8125 C 2.859375 -2.082031 2.710938 -1.367188 2.578125 -0.671875 C 2.453125 0.015625 2.347656 0.644531 2.265625 1.21875 C 2.179688 1.789062 2.132812 2.265625 2.125 2.640625 C 2.125 3.054688 2.144531 3.367188 2.1875 3.578125 C 2.238281 3.785156 2.289062 3.921875 2.34375 3.984375 C 2.394531 4.046875 2.4375 4.082031 2.46875 4.09375 C 2.507812 4.101562 2.585938 4.085938 2.703125 4.046875 C 2.816406 4.015625 2.988281 3.894531 3.21875 3.6875 C 3.445312 3.476562 3.75 3.128906 4.125 2.640625 C 4.832031 1.710938 5.703125 0.359375 6.734375 -1.421875 C 7.191406 -2.210938 7.648438 -3.023438 8.109375 -3.859375 C 8.566406 -4.691406 9.003906 -5.507812 9.421875 -6.3125 C 9.835938 -7.113281 10.21875 -7.851562 10.5625 -8.53125 C 10.914062 -9.21875 11.222656 -9.8125 11.484375 -10.3125 C 11.578125 -10.507812 11.664062 -10.6875 11.75 -10.84375 C 11.832031 -11.007812 11.898438 -11.148438 11.953125 -11.265625 C 11.984375 -11.316406 12.023438 -11.351562 12.078125 -11.375 C 12.140625 -11.394531 12.195312 -11.394531 12.25 -11.375 Z M 12.25 -11.375 "/></g></g></g><g fill="#000000" fill-opacity="1"><g transform="translate(246.305953, 238.416445)"><g><path d="M 11.75 2.8125 C 11.789062 2.851562 11.8125 2.90625 11.8125 2.96875 C 11.820312 3.03125 11.804688 3.085938 11.765625 3.140625 C 11.359375 3.648438 10.925781 3.90625 10.46875 3.90625 C 10.445312 3.90625 10.429688 3.90625 10.421875 3.90625 C 10.085938 3.894531 9.757812 3.757812 9.4375 3.5 C 9.125 3.25 8.804688 2.914062 8.484375 2.5 C 8.160156 2.09375 7.828125 1.644531 7.484375 1.15625 C 7.128906 0.65625 6.753906 0.148438 6.359375 -0.359375 C 5.960938 -0.878906 5.539062 -1.332031 5.09375 -1.71875 C 4.625 -1.601562 4.160156 -1.550781 3.703125 -1.5625 C 3.523438 -0.832031 3.347656 -0.101562 3.171875 0.625 C 2.992188 1.363281 2.828125 2.0625 2.671875 2.71875 C 2.523438 3.382812 2.394531 3.984375 2.28125 4.515625 C 2.175781 5.046875 2.101562 5.476562 2.0625 5.8125 C 2.082031 5.757812 2.109375 5.703125 2.140625 5.640625 C 2.160156 5.578125 2.195312 5.535156 2.25 5.515625 C 2.3125 5.492188 2.375 5.492188 2.4375 5.515625 C 2.5 5.546875 2.535156 5.585938 2.546875 5.640625 C 2.566406 5.703125 2.566406 5.757812 2.546875 5.8125 C 2.398438 6.144531 2.273438 6.390625 2.171875 6.546875 C 2.078125 6.703125 1.972656 6.78125 1.859375 6.78125 C 1.828125 6.78125 1.796875 6.773438 1.765625 6.765625 C 1.703125 6.742188 1.65625 6.695312 1.625 6.625 C 1.59375 6.5625 1.578125 6.4375 1.578125 6.25 C 1.578125 6.070312 1.601562 5.800781 1.65625 5.4375 C 1.71875 5.082031 1.8125 4.597656 1.9375 3.984375 C 2.070312 3.378906 2.242188 2.617188 2.453125 1.703125 C 2.660156 0.796875 2.925781 -0.300781 3.25 -1.59375 C 2.820312 -1.644531 2.492188 -1.753906 2.265625 -1.921875 C 2.046875 -2.085938 1.910156 -2.257812 1.859375 -2.4375 C 1.765625 -2.707031 1.835938 -2.929688 2.078125 -3.109375 C 2.234375 -3.242188 2.445312 -3.3125 2.71875 -3.3125 C 2.988281 -3.3125 3.289062 -3.25 3.625 -3.125 C 3.664062 -3.320312 3.710938 -3.519531 3.765625 -3.71875 C 3.816406 -3.914062 3.863281 -4.117188 3.90625 -4.328125 C 4.082031 -5.023438 4.25 -5.695312 4.40625 -6.34375 C 4.570312 -7 4.71875 -7.601562 4.84375 -8.15625 C 4.976562 -8.71875 5.09375 -9.195312 5.1875 -9.59375 C 5.195312 -9.65625 5.226562 -9.703125 5.28125 -9.734375 C 5.332031 -9.773438 5.390625 -9.785156 5.453125 -9.765625 C 5.515625 -9.753906 5.5625 -9.722656 5.59375 -9.671875 C 5.625 -9.617188 5.632812 -9.5625 5.625 -9.5 C 5.53125 -9.101562 5.414062 -8.625 5.28125 -8.0625 C 5.15625 -7.507812 5.007812 -6.90625 4.84375 -6.25 C 4.6875 -5.59375 4.523438 -4.914062 4.359375 -4.21875 C 4.296875 -4.019531 4.238281 -3.8125 4.1875 -3.59375 C 4.144531 -3.382812 4.097656 -3.164062 4.046875 -2.9375 C 4.234375 -2.851562 4.429688 -2.75 4.640625 -2.625 C 4.816406 -2.507812 5.003906 -2.375 5.203125 -2.21875 C 5.722656 -2.363281 6.253906 -2.59375 6.796875 -2.90625 C 7.347656 -3.226562 7.882812 -3.644531 8.40625 -4.15625 C 8.9375 -4.664062 9.421875 -5.296875 9.859375 -6.046875 C 10.191406 -6.609375 10.4375 -7.15625 10.59375 -7.6875 C 10.757812 -8.226562 10.832031 -8.722656 10.8125 -9.171875 C 10.800781 -9.628906 10.703125 -10.019531 10.515625 -10.34375 C 10.066406 -11.039062 9.222656 -11.34375 7.984375 -11.25 C 7.359375 -11.207031 6.71875 -11.078125 6.0625 -10.859375 C 5.40625 -10.648438 4.773438 -10.375 4.171875 -10.03125 C 3.566406 -9.6875 3.023438 -9.300781 2.546875 -8.875 C 2.066406 -8.445312 1.695312 -8.007812 1.4375 -7.5625 C 0.945312 -6.6875 0.898438 -5.859375 1.296875 -5.078125 C 1.316406 -5.023438 1.316406 -4.96875 1.296875 -4.90625 C 1.273438 -4.84375 1.238281 -4.796875 1.1875 -4.765625 C 1.132812 -4.742188 1.078125 -4.742188 1.015625 -4.765625 C 0.960938 -4.785156 0.921875 -4.820312 0.890625 -4.875 C 0.421875 -5.8125 0.472656 -6.78125 1.046875 -7.78125 C 1.328125 -8.269531 1.71875 -8.738281 2.21875 -9.1875 C 2.71875 -9.644531 3.28125 -10.050781 3.90625 -10.40625 C 4.539062 -10.769531 5.207031 -11.0625 5.90625 -11.28125 C 6.601562 -11.507812 7.289062 -11.648438 7.96875 -11.703125 C 8.539062 -11.742188 9.023438 -11.707031 9.421875 -11.59375 C 9.816406 -11.488281 10.128906 -11.335938 10.359375 -11.140625 C 10.585938 -10.953125 10.765625 -10.757812 10.890625 -10.5625 C 11.117188 -10.195312 11.242188 -9.757812 11.265625 -9.25 C 11.285156 -8.75 11.210938 -8.203125 11.046875 -7.609375 C 10.878906 -7.023438 10.613281 -6.425781 10.25 -5.8125 C 9.894531 -5.21875 9.472656 -4.660156 8.984375 -4.140625 C 8.503906 -3.617188 7.988281 -3.171875 7.4375 -2.796875 C 6.84375 -2.378906 6.234375 -2.066406 5.609375 -1.859375 C 6.023438 -1.460938 6.414062 -1.019531 6.78125 -0.53125 C 7.15625 -0.0507812 7.507812 0.421875 7.84375 0.890625 C 8.15625 1.328125 8.457031 1.738281 8.75 2.125 C 9.050781 2.519531 9.335938 2.835938 9.609375 3.078125 C 9.890625 3.328125 10.164062 3.453125 10.4375 3.453125 C 10.757812 3.460938 11.09375 3.265625 11.4375 2.859375 C 11.46875 2.804688 11.507812 2.773438 11.5625 2.765625 C 11.625 2.765625 11.6875 2.78125 11.75 2.8125 Z M 2.28125 -2.5625 C 2.320312 -2.445312 2.429688 -2.335938 2.609375 -2.234375 C 2.785156 -2.128906 3.035156 -2.0625 3.359375 -2.03125 C 3.410156 -2.238281 3.460938 -2.453125 3.515625 -2.671875 C 3.378906 -2.734375 3.242188 -2.78125 3.109375 -2.8125 C 2.972656 -2.84375 2.84375 -2.859375 2.71875 -2.859375 C 2.5625 -2.859375 2.4375 -2.828125 2.34375 -2.765625 C 2.28125 -2.703125 2.257812 -2.632812 2.28125 -2.5625 Z M 3.8125 -2.015625 C 4.082031 -2.015625 4.359375 -2.039062 4.640625 -2.09375 C 4.554688 -2.144531 4.476562 -2.195312 4.40625 -2.25 C 4.332031 -2.289062 4.253906 -2.332031 4.171875 -2.375 C 4.097656 -2.414062 4.015625 -2.457031 3.921875 -2.5 C 3.910156 -2.414062 3.894531 -2.332031 3.875 -2.25 C 3.851562 -2.164062 3.832031 -2.085938 3.8125 -2.015625 Z M 3.8125 -2.015625 "/></g></g></g></svg>